<?xml version="1.0" encoding="UTF-8"?>
<svg version="1.1" xmlns="http://www.w3.org/2000/svg" width="2000" height="2000">
<path d="M0 0 C660 0 1320 0 2000 0 C2000 660 2000 1320 2000 2000 C1340 2000 680 2000 0 2000 C0 1340 0 680 0 0 Z " fill="#FEFEFE" transform="translate(0,0)"/>
<path d="M0 0 C106.85423729 0 106.85423729 0 136.40625 28.3046875 C142.62535049 34.80066575 146.88603806 42.08714979 151 50 C151.49628906 50.91652344 151.99257812 51.83304688 152.50390625 52.77734375 C158.27192183 64.22728512 159.25067049 76.26988934 159.3125 88.875 C159.31805908 89.82536133 159.32361816 90.77572266 159.3293457 91.75488281 C159.09769494 114.46061777 148.76919053 134.18581891 133 150 C132.29230469 150.73089844 131.58460938 151.46179687 130.85546875 152.21484375 C97.21305329 184.69939405 39.64379631 175 0 175 C0 117.25 0 59.5 0 0 Z " fill="#01B4E9" transform="translate(1355,921)"/>
<path d="M0 0 C14.540625 -0.061875 29.08125 -0.12375 44.0625 -0.1875 C48.62457275 -0.21481201 53.18664551 -0.24212402 57.88696289 -0.27026367 C63.53210449 -0.28381348 63.53210449 -0.28381348 66.18919373 -0.28633118 C68.01355699 -0.29088619 69.83791222 -0.30132758 71.66221619 -0.31672668 C93.40177853 -0.49078327 113.55587186 2.28202214 130.1875 17.6875 C139.31159869 27.21225771 142.49853437 37.88724701 142.24609375 50.76171875 C141.4421948 61.34000812 136.25075204 71.30980845 129 79 C127.1999193 80.36200797 125.37445722 81.64677009 123.48828125 82.88671875 C121.84010737 83.94616763 121.84010737 83.94616763 121 86 C122.3303125 86.36738281 122.3303125 86.36738281 123.6875 86.7421875 C133.42928144 90.44130734 141.06088125 100.49024671 145.3125 109.75 C150.19726187 121.20961012 148.42403607 133.34584289 143.93359375 144.6953125 C137.92719072 157.65962795 127.49940951 165.8690448 114.25041199 170.85539246 C101.22980787 175.4404979 88.95049227 175.39793794 75.29296875 175.29296875 C73.36023214 175.28854834 71.42749191 175.2854937 69.49475098 175.28381348 C62.3922786 175.26819561 55.2898835 175.22631209 48.1875 175.1875 C32.285625 175.125625 16.38375 175.06375 0 175 C0 117.25 0 59.5 0 0 Z " fill="#0276B7" transform="translate(681,921)"/>
<path d="M0 0 C11.88 0 23.76 0 36 0 C36 23.1 36 46.2 36 70 C62.4 70 88.8 70 116 70 C116 46.9 116 23.8 116 0 C128.21 0 140.42 0 153 0 C153 57.75 153 115.5 153 175 C140.79 175 128.58 175 116 175 C116 151.57 116 128.14 116 104 C89.6 104 63.2 104 36 104 C36 127.43 36 150.86 36 175 C24.12 175 12.24 175 0 175 C0 117.25 0 59.5 0 0 Z " fill="#0376B7" transform="translate(316,921)"/>
<path d="M0 0 C1.25167969 0.32871094 2.50335937 0.65742187 3.79296875 0.99609375 C17.95217482 4.9252998 33.1452233 10.86235569 44 21 C40.76434312 26.99978587 36.93200101 32.40432235 32.875 37.875 C32.24207031 38.74125 31.60914063 39.6075 30.95703125 40.5 C30.34988281 41.32242188 29.74273438 42.14484375 29.1171875 42.9921875 C28.29130127 44.11149658 28.29130127 44.11149658 27.44873047 45.25341797 C26 47 26 47 24 48 C21.82216788 46.70909532 19.76810438 45.37154317 17.6875 43.9375 C0.02965159 32.22552246 -21.34230104 24.72659182 -42.6875 28.68359375 C-49.88119952 30.69016966 -56.13831622 33.31459909 -60.15234375 39.88671875 C-61.94818075 44.36389762 -61.75355796 49.47701165 -60.3828125 54.06640625 C-57.96355686 59.02266892 -54.03340982 61.08337066 -49 63 C-44.95330898 64.0464083 -40.87088836 64.74904253 -36.75 65.4375 C-35.57848389 65.64576416 -34.40696777 65.85402832 -33.19995117 66.06860352 C-26.99650227 67.16677439 -20.78353085 68.20129791 -14.56640625 69.21875 C6.31342928 72.68872334 27.81962761 76.66730022 41 95 C48.34337747 107.06412013 49.92223218 119.79826214 46.68359375 133.6015625 C42.5734498 148.02229612 33.69631292 158.82057856 20.625 166.25 C6.43540019 173.53228418 -7.54424891 176.50660419 -23.4375 176.3125 C-24.75298828 176.31572266 -26.06847656 176.31894531 -27.42382812 176.32226562 C-38.79375151 176.26038084 -49.824117 175.1934461 -60.625 171.5 C-61.37225342 171.24573242 -62.11950684 170.99146484 -62.8894043 170.72949219 C-76.61833646 165.82640406 -91.69140535 158.54919022 -102 148 C-102 143.64194973 -101.76266562 143.22079412 -99.11328125 140.1015625 C-98.50419922 139.37453125 -97.89511719 138.6475 -97.26757812 137.8984375 C-96.62240234 137.14820313 -95.97722656 136.39796875 -95.3125 135.625 C-94.37374023 134.51125 -94.37374023 134.51125 -93.41601562 133.375 C-92.18971485 131.92141626 -90.95951294 130.47111312 -89.72509766 129.02441406 C-87.4612302 126.3677499 -85.22945028 123.68557108 -83 121 C-79.84856533 122.39213862 -77.22825182 124.2590449 -74.48339844 126.32592773 C-55.22536064 140.75860649 -35.04431238 147.51077174 -10.75 144.375 C-3.57769915 142.99869362 4.31450293 140.03015944 8.625 133.8125 C11.22464867 128.49503682 11.65639947 123.84377859 11 118 C8.37350077 112.74700154 4.71656848 109.10915715 -0.75537109 106.875 C-12.87963453 103.49971958 -25.235479 101.55832569 -37.63769531 99.5 C-76.42468567 93.02496281 -76.42468567 93.02496281 -89 77 C-96.63462901 64.56505704 -98.95815466 51.72881146 -96.34765625 37.42578125 C-92.45273016 23.30040552 -83.21123885 13.04308776 -70.8671875 5.56640625 C-50.40360324 -5.61329033 -22.05526365 -6.16947919 0 0 Z " fill="#02B4E9" transform="translate(942,922)"/>
<path d="M0 0 C11.88 0 23.76 0 36 0 C36.0093457 3.23385498 36.01869141 6.46770996 36.02832031 9.79956055 C36.06218621 20.52047063 36.11778861 31.24119018 36.18390274 41.96194744 C36.2233019 48.45779575 36.25552759 54.95351002 36.27099609 61.44946289 C36.28621226 67.72607209 36.32074628 74.00231262 36.36830902 80.2787571 C36.38307166 82.66552324 36.39103805 85.05234203 36.39188385 87.43915367 C36.34643756 112.06029807 36.34643756 112.06029807 48.6953125 132.7421875 C58.08944785 141.20954717 67.89053896 143.48473168 80.37890625 143.18359375 C90.46416882 142.47717446 100.34718569 138.8340986 107.33203125 131.28515625 C115.13060707 120.60092473 117.12959962 110.24678871 117.20532227 97.29125977 C117.21522186 96.23685196 117.22512146 95.18244415 117.23532104 94.09608459 C117.26678508 90.62788094 117.29163358 87.15966361 117.31640625 83.69140625 C117.33698882 81.28002069 117.35798563 78.86863863 117.37937927 76.45726013 C117.43446534 70.12308598 117.48393384 63.78887999 117.53222656 57.45465088 C117.58254009 50.98601461 117.63817466 44.51742434 117.69335938 38.04882812 C117.8007762 25.36592332 117.90176558 12.68297925 118 0 C130.21 0 142.42 0 155 0 C155.06803869 13.67473022 155.12296716 27.34934622 155.15543652 41.02420807 C155.17102775 47.37541543 155.19214543 53.7265 155.22631836 60.07763672 C155.25914644 66.21793305 155.27690209 72.35811199 155.28463173 78.49848938 C155.29013342 80.82979681 155.30087563 83.16109852 155.31719017 85.49235535 C155.40368992 98.3764496 155.06989913 110.44275816 152 123 C151.78752121 123.92687622 151.57504242 124.85375244 151.35612488 125.80871582 C148.38060284 138.14476733 141.01816553 149.2933711 132 158 C131.41476562 158.57105469 130.82953125 159.14210938 130.2265625 159.73046875 C111.95492151 176.41513623 88.7741673 177.96534443 65.2421875 177.18652344 C46.88537427 176.13045376 30.30199476 167.4020241 18 154 C5.4232935 139.15570702 -0.18036811 121.18948394 -0.11352539 101.94580078 C-0.11367142 100.84277115 -0.11381744 99.73974152 -0.1139679 98.60328674 C-0.11327274 94.96727514 -0.10549891 91.33131513 -0.09765625 87.6953125 C-0.09579066 85.17040027 -0.09436742 82.64548767 -0.09336853 80.12057495 C-0.08994404 74.16025916 -0.08206719 68.19995985 -0.07201904 62.23965251 C-0.06082437 55.45125333 -0.05533901 48.66285324 -0.05032361 41.87444711 C-0.03988364 27.916286 -0.02155161 13.95814814 0 0 Z " fill="#0276B7" transform="translate(498,921)"/>
<path d="M0 0 C12.21 0 24.42 0 37 0 C37.0093457 3.23385498 37.01869141 6.46770996 37.02832031 9.79956055 C37.06218621 20.52047063 37.11778861 31.24119018 37.18390274 41.96194744 C37.2233019 48.45779575 37.25552759 54.95351002 37.27099609 61.44946289 C37.28621226 67.72607209 37.32074628 74.00231262 37.36830902 80.2787571 C37.38307166 82.66552324 37.39103805 85.05234203 37.39188385 87.43915367 C37.40398799 104.47928513 37.50115794 119.83526944 49.84765625 132.96484375 C59.32239438 141.87448815 69.72283814 143.58228758 82.30859375 143.33203125 C92.56663795 142.82855625 100.63913241 138.57095061 107.91015625 131.453125 C115.95662465 122.00792471 118.45002083 109.95058713 118.43237305 97.85888672 C118.4425647 96.79428726 118.45275635 95.72968781 118.46325684 94.63282776 C118.49321395 91.14839293 118.50262644 87.6642338 118.51171875 84.1796875 C118.52857822 81.75016377 118.54673015 79.32064869 118.56611633 76.8911438 C118.61348448 70.52248845 118.6433792 64.15386822 118.66955566 57.78509521 C118.69942773 51.27593048 118.74593522 44.76688653 118.79101562 38.2578125 C118.87689887 25.50525785 118.94277182 12.75271547 119 0 C130.88 0 142.76 0 155 0 C155.09072688 14.3093745 155.16396088 28.61855484 155.20724869 42.92815304 C155.22803506 49.57421568 155.25618767 56.22001381 155.30175781 62.8659668 C155.34553631 69.29156581 155.36920427 75.71696534 155.37950897 82.1427021 C155.38684324 84.58204852 155.40116359 87.02138526 155.42292023 89.46064568 C155.6340199 114.13170269 152.52145257 137.99477059 134.75 156.75 C116.33632277 174.22738855 94.25816534 177.54582489 69.98828125 177.26953125 C51.30336284 176.76426437 33.97781277 169.56239893 21 156 C20.29488281 155.31421875 19.58976562 154.6284375 18.86328125 153.921875 C-0.03045973 134.48831285 -0.31395983 106.74847378 -0.1953125 81.4453125 C-0.19157553 79.08877686 -0.18873179 76.73223966 -0.18673706 74.3757019 C-0.17915445 68.21746418 -0.15955292 62.05932301 -0.1373291 55.90112305 C-0.11675407 49.59945989 -0.10771057 43.29778092 -0.09765625 36.99609375 C-0.07630128 24.66401358 -0.04116376 12.33202998 0 0 Z " fill="#02B4E9" transform="translate(1171,921)"/>
<path d="M0 0 C35.80125363 -3.94367117 35.80125363 -3.94367117 45.35009766 2.13134766 C50.63107339 7.80147993 53.62873982 14.6081815 56.56103516 21.70898438 C58.66905332 26.53017284 61.51757516 30.68603965 64.5 35 C65.54577782 36.5915082 66.58605177 38.18664516 67.62109375 39.78515625 C68.15589355 40.60773926 68.69069336 41.43032227 69.24169922 42.27783203 C71.24813288 45.38415463 73.23716489 48.50136822 75.22265625 51.62109375 C75.58326141 52.18712311 75.94386658 52.75315247 76.31539917 53.33633423 C78.08759042 56.11844396 79.8567617 58.90234415 81.62109375 61.68945312 C82.26304688 62.69814453 82.905 63.70683594 83.56640625 64.74609375 C84.13302979 65.63997803 84.69965332 66.5338623 85.28344727 67.45483398 C87.06070894 70.09001432 88.9821695 72.5456581 91 75 C91.66902344 73.93007813 92.33804687 72.86015625 93.02734375 71.7578125 C100.52209867 59.81250632 108.20454802 47.99496261 115.9375 36.203125 C119.33354428 31.02384185 122.7061001 25.83003499 126.0625 20.625 C138.23834638 1.76165362 138.23834638 1.76165362 140 0 C142.8843382 -0.08865208 145.74462158 -0.11521296 148.62890625 -0.09765625 C149.92525246 -0.09553383 149.92525246 -0.09553383 151.24778748 -0.09336853 C154.01939292 -0.08775239 156.7909188 -0.07519719 159.5625 -0.0625 C161.4368478 -0.05748708 163.31119685 -0.05292381 165.18554688 -0.04882812 C169.79039544 -0.03777772 174.39518421 -0.0205023 179 0 C177.64825228 2.81228046 176.14787065 5.42222258 174.44213867 8.03393555 C173.93282303 8.81581741 173.42350739 9.59769928 172.89875793 10.40327454 C172.3482225 11.24343613 171.79768707 12.08359772 171.23046875 12.94921875 C170.65306442 13.83373215 170.0756601 14.71824554 169.48075867 15.62956238 C167.65664174 18.42155419 165.82893961 21.21116535 164 24 C163.15674164 25.28635345 163.15674164 25.28635345 162.29644775 26.59869385 C159.491955 30.87441957 156.68083187 35.14562261 153.86230469 39.41210938 C151.40270967 43.1402404 148.97508223 46.8871481 146.56347656 50.64648438 C140.58650616 59.90862946 134.55424452 68.76575871 127.37109375 77.13671875 C102.7579178 106.71498438 106.11512713 138.39322737 108 175 C95.79 175 83.58 175 71 175 C71.26425781 170.60171875 71.52851562 166.2034375 71.80078125 161.671875 C73.47768032 123.11532082 70.32020907 97.94844045 44.58154297 67.34765625 C39.72360666 61.54656566 35.69022801 55.3044175 31.625 48.9375 C30.25969123 46.88373154 28.88985112 44.83296862 27.515625 42.78515625 C22.30684248 34.97078669 17.1315058 27.13440118 11.9664917 19.29104614 C10.91067756 17.68821298 9.85408512 16.08589222 8.79669189 14.48410034 C7.32831168 12.2591307 5.8629445 10.03220783 4.3984375 7.8046875 C3.95256287 7.13009995 3.50668823 6.45551239 3.04730225 5.76048279 C0 1.11443165 0 1.11443165 0 0 Z " fill="#03B4E9" transform="translate(1522,921)"/>
<path d="M0 0 C50.82 0 101.64 0 154 0 C154 10.56 154 21.12 154 32 C134.53 32 115.06 32 95 32 C95 79.19 95 126.38 95 175 C83.12 175 71.24 175 59 175 C59 127.81 59 80.62 59 32 C39.53 32 20.06 32 0 32 C0 21.44 0 10.88 0 0 Z " fill="#01B4E9" transform="translate(1000,921)"/>
<path d="M0 0 C52.96932196 0 52.96932196 0 71.74609375 17.66015625 C82.78321434 29.11810292 86.3426224 43.49623267 86.1484375 58.9921875 C85.51050209 71.91877346 80.59645746 83.38236509 72 93 C71.45472656 93.62648438 70.90945313 94.25296875 70.34765625 94.8984375 C62.00798906 103.88565532 50.85879015 108.62824197 39 111 C26.13 111 13.26 111 0 111 C0 74.37 0 37.74 0 0 Z " fill="#FCFDFD" transform="translate(1391,953)"/>
<path d="M0 0 C7.40168676 -0.04600496 14.80287384 -0.08580361 22.20458984 -0.10986328 C24.7205575 -0.11989737 27.23651357 -0.13352768 29.75244141 -0.15087891 C33.37665678 -0.17524097 37.00071744 -0.18650931 40.625 -0.1953125 C42.30203003 -0.21079636 42.30203003 -0.21079636 44.01293945 -0.22659302 C52.72522728 -0.22783404 59.95978578 0.337219 67 6 C73.17587087 12.33496824 74.42295534 16.7985184 74.34375 25.69921875 C73.69301992 31.94770649 70.5373091 35.8252953 65.9375 39.875 C59.98651018 44.17997136 54.78917021 45.13107457 47.45361328 45.11352539 C46.39296661 45.11344986 45.33231995 45.11337433 44.23953247 45.11329651 C43.11118988 45.10813522 41.98284729 45.10297394 40.8203125 45.09765625 C39.06846146 45.09553383 39.06846146 45.09553383 37.28121948 45.09336853 C33.56245326 45.08778498 29.84374793 45.07523544 26.125 45.0625 C23.5989592 45.05748288 21.07291746 45.05292034 18.546875 45.04882812 C12.36454118 45.03867317 6.1823385 45.01909439 0 45 C0 30.15 0 15.3 0 0 Z " fill="#FEFDFD" transform="translate(718,1021)"/>
<path d="M0 0 C6.77763105 -0.09224753 13.55304997 -0.17176279 20.33081055 -0.21972656 C22.63231827 -0.23973827 24.93377582 -0.26695631 27.23510742 -0.30175781 C30.55920862 -0.35073699 33.88263276 -0.37307401 37.20703125 -0.390625 C38.2220723 -0.41127014 39.23711334 -0.43191528 40.28291321 -0.45318604 C48.64038813 -0.45576207 56.45109538 1.04257948 63 6.5 C63.99 7.7375 63.99 7.7375 65 9 C65.5775 9.70125 66.155 10.4025 66.75 11.125 C69.77489469 15.66234204 69.65238222 20.75818471 69 26 C66.95873907 32.05701257 63.73642365 35.82957699 58.2578125 39.02734375 C51.2785733 42.03397102 45.12210238 42.27030783 37.59765625 42.1953125 C36.51995468 42.1924826 35.44225311 42.18965271 34.33189392 42.18673706 C30.90864701 42.17559193 27.48566709 42.15049756 24.0625 42.125 C21.73372775 42.11496289 19.40495138 42.10583832 17.07617188 42.09765625 C11.38393036 42.07737751 5.69226209 42.03821735 0 42 C0 28.14 0 14.28 0 0 Z " fill="#FBFCFD" transform="translate(718,951)"/>
</svg>
