<?xml version="1.0" encoding="UTF-8"?>
<!DOCTYPE svg PUBLIC "-//W3C//DTD SVG 1.1//EN" "http://www.w3.org/Graphics/SVG/1.1/DTD/svg11.dtd">
<svg xmlns="http://www.w3.org/2000/svg" version="1.1" width="2048px" height="2048px" style="shape-rendering:geometricPrecision; text-rendering:geometricPrecision; image-rendering:optimizeQuality; fill-rule:evenodd; clip-rule:evenodd" xmlns:xlink="http://www.w3.org/1999/xlink">
<g><path style="opacity:0.789" fill="#284b97" d="M 2047.5,1003.5 C 2047.5,1016.83 2047.5,1030.17 2047.5,1043.5C 2040.48,1146.07 2006.65,1238.74 1946,1321.5C 1904.28,1378.22 1855.45,1428.05 1799.5,1471C 1708.4,1539.9 1608.4,1593.23 1499.5,1631C 1311.58,1694.78 1118.58,1719.78 920.5,1706C 763.761,1696.15 613.094,1660.81 468.5,1600C 361.551,1554.74 265.885,1492.74 181.5,1414C 125.51,1360.02 80.3436,1298.19 46,1228.5C 18.711,1169.68 3.21095,1108.01 -0.5,1043.5C -0.5,1030.17 -0.5,1016.83 -0.5,1003.5C 6.52052,900.929 40.3539,808.262 101,725.5C 142.716,668.783 191.549,618.95 247.5,576C 338.604,507.099 438.604,453.766 547.5,416C 735.422,352.218 928.422,327.218 1126.5,341C 1283.24,350.853 1433.91,386.186 1578.5,447C 1685.48,492.275 1781.15,554.275 1865.5,633C 1921.49,686.981 1966.66,748.814 2001,818.5C 2028.29,877.323 2043.79,938.99 2047.5,1003.5 Z"/></g>
<g><path style="opacity:1" fill="#fbda01" d="M 960.5,343.5 C 1115.93,337.609 1268.6,355.109 1418.5,396C 1530.1,427.142 1634.76,473.475 1732.5,535C 1804.24,580.711 1867.4,636.545 1922,702.5C 1963.74,753.79 1995.58,810.957 2017.5,874C 2056.03,994.215 2048.86,1111.72 1996,1226.5C 1960.11,1299.42 1912.27,1363.58 1852.5,1419C 1767.32,1495.7 1671.32,1556.04 1564.5,1600C 1410.67,1662.42 1250.67,1696.76 1084.5,1703C 889.012,1711.73 699.679,1682.07 516.5,1614C 411.204,1574.18 315.204,1519.18 228.5,1449C 168.538,1399.06 118.038,1341.23 77,1275.5C 6.32538,1157.11 -12.008,1031.11 22,897.5C 42.4772,829.203 74.4772,767.203 118,711.5C 177.746,637.45 247.912,575.617 328.5,526C 447.724,453.914 575.724,403.581 712.5,375C 794.46,357.755 877.127,347.255 960.5,343.5 Z"/></g>
<g><path style="opacity:1" fill="#2f306d" d="M 1077.5,436.5 C 1077.5,437.5 1077.5,438.5 1077.5,439.5C 1072.83,439.5 1068.17,439.5 1063.5,439.5C 1062.15,433.98 1058.82,430.147 1053.5,428C 1032.61,424.036 1021.94,432.869 1021.5,454.5C 1023.16,479.31 1035.49,487.477 1058.5,479C 1062.55,475.027 1064.55,470.194 1064.5,464.5C 1058.5,464.5 1052.5,464.5 1046.5,464.5C 1046.5,460.833 1046.5,457.167 1046.5,453.5C 1057.17,453.5 1067.83,453.5 1078.5,453.5C 1078.5,457.5 1078.5,461.5 1078.5,465.5C 1077.25,480.851 1069.25,490.684 1054.5,495C 1023.97,498.476 1008.31,484.809 1007.5,454C 1006.95,435.586 1014.95,422.586 1031.5,415C 1047.74,410.53 1061.57,414.363 1073,426.5C 1075.32,429.48 1076.82,432.813 1077.5,436.5 Z"/></g>
<g><path style="opacity:1" fill="#2f306d" d="M 982.5,414.5 C 984.833,414.5 987.167,414.5 989.5,414.5C 990.533,441.498 991.533,468.498 992.5,495.5C 988.154,495.666 983.821,495.499 979.5,495C 966,477.5 952.5,460 939,442.5C 939.222,456.492 939.722,470.492 940.5,484.5C 940.5,488.833 940.5,493.167 940.5,497.5C 937.287,497.19 934.287,497.523 931.5,498.5C 929.833,498.5 928.167,498.5 926.5,498.5C 925.498,471.476 924.165,444.476 922.5,417.5C 927.214,417.173 931.88,417.507 936.5,418.5C 949.751,435.35 962.751,452.35 975.5,469.5C 975.56,470.043 975.893,470.376 976.5,470.5C 977.808,466.685 977.808,463.019 976.5,459.5C 975.977,447.506 975.643,435.506 975.5,423.5C 975.5,420.833 975.5,418.167 975.5,415.5C 978.059,415.802 980.393,415.468 982.5,414.5 Z"/></g>
<g><path style="opacity:1" fill="#30306d" d="M 1120.5,416.5 C 1144.93,413.108 1160.43,423.108 1167,446.5C 1168.53,459.111 1166.53,471.111 1161,482.5C 1150.55,496.54 1136.72,501.706 1119.5,498C 1104.83,492.997 1096.33,482.83 1094,467.5C 1090.65,449.894 1095.48,435.061 1108.5,423C 1112.43,420.536 1116.43,418.369 1120.5,416.5 Z"/></g>
<g><path style="opacity:1" fill="#605754" d="M 982.5,414.5 C 980.393,415.468 978.059,415.802 975.5,415.5C 975.5,418.167 975.5,420.833 975.5,423.5C 974.523,420.713 974.19,417.713 974.5,414.5C 977.167,414.5 979.833,414.5 982.5,414.5 Z"/></g>
<g><path style="opacity:1" fill="#2f306d" d="M 874.5,476.5 C 877.082,476.025 879.082,476.692 880.5,478.5C 878.229,494.273 869.229,503.773 853.5,507C 827.888,509.593 813.055,498.093 809,472.5C 805.085,451.529 812.585,436.363 831.5,427C 848.003,421.787 861.836,425.621 873,438.5C 875.072,441.971 876.572,445.638 877.5,449.5C 872.463,450.259 867.463,450.259 862.5,449.5C 860.632,444.132 856.965,440.632 851.5,439C 830.269,437.234 820.769,447.067 823,468.5C 823.751,478.843 828.251,487.01 836.5,493C 852.019,497.907 862.353,492.74 867.5,477.5C 869.747,476.626 872.08,476.292 874.5,476.5 Z"/></g>
<g><path style="opacity:1" fill="#2f306d" d="M 1206.5,424.5 C 1212.89,424.646 1219.23,425.313 1225.5,426.5C 1231.5,454.167 1237.5,481.833 1243.5,509.5C 1238.23,509.362 1233.06,508.695 1228,507.5C 1227,500.512 1225.5,493.679 1223.5,487C 1213.2,485.689 1202.87,484.855 1192.5,484.5C 1190.53,490.614 1187.86,496.448 1184.5,502C 1179.48,502.074 1174.48,501.574 1169.5,500.5C 1182.22,475.315 1194.56,449.982 1206.5,424.5 Z"/></g>
<g><path style="opacity:1" fill="#f9d706" d="M 1123.5,429.5 C 1137.42,427.205 1146.92,432.538 1152,445.5C 1153.3,455.431 1152.3,465.097 1149,474.5C 1140.58,487.288 1129.74,489.788 1116.5,482C 1105.86,468.379 1104.7,453.879 1113,438.5C 1116.1,434.886 1119.6,431.886 1123.5,429.5 Z"/></g>
<g><path style="opacity:1" fill="#2d2f6e" d="M 1269.5,511.5 C 1265.14,512.189 1260.8,511.689 1256.5,510C 1260.61,488.258 1264.44,466.425 1268,444.5C 1268.8,441.961 1268.63,439.628 1267.5,437.5C 1267.5,435.833 1267.5,434.167 1267.5,432.5C 1272.11,433.554 1276.77,434.221 1281.5,434.5C 1277.83,460.214 1273.83,485.881 1269.5,511.5 Z"/></g>
<g><path style="opacity:1" fill="#6a614d" d="M 1077.5,436.5 C 1078.43,437.568 1078.77,438.901 1078.5,440.5C 1073.31,440.821 1068.31,440.487 1063.5,439.5C 1068.17,439.5 1072.83,439.5 1077.5,439.5C 1077.5,438.5 1077.5,437.5 1077.5,436.5 Z"/></g>
<g><path style="opacity:1" fill="#30316d" d="M 747.5,439.5 C 778.365,437.691 794.365,452.358 795.5,483.5C 792.969,512.131 777.302,524.631 748.5,521C 734.189,515.266 725.355,504.766 722,489.5C 716.548,465.4 725.048,448.733 747.5,439.5 Z"/></g>
<g><path style="opacity:1" fill="#f2d10f" d="M 1220.5,472.5 C 1219.45,474.256 1217.78,474.923 1215.5,474.5C 1210.17,474.167 1204.83,473.833 1199.5,473.5C 1203.41,462.353 1208.41,451.686 1214.5,441.5C 1217.01,451.74 1219.01,462.073 1220.5,472.5 Z"/></g>
<g><path style="opacity:1" fill="#2e306e" d="M 1342.5,446.5 C 1349.62,463.686 1356.45,481.019 1363,498.5C 1363.55,500.76 1364.72,502.426 1366.5,503.5C 1367.79,505.255 1368.79,507.255 1369.5,509.5C 1374.61,492.044 1378.95,474.377 1382.5,456.5C 1387.24,457.185 1391.91,458.185 1396.5,459.5C 1390.71,485.547 1384.71,511.547 1378.5,537.5C 1374.14,536.993 1369.81,536.327 1365.5,535.5C 1357.89,514.279 1349.72,493.279 1341,472.5C 1336.36,490.068 1332.19,507.735 1328.5,525.5C 1324.09,525.147 1319.75,524.314 1315.5,523C 1314.92,522.107 1314.59,521.107 1314.5,520C 1319.85,495.386 1325.69,470.886 1332,446.5C 1332.31,445.692 1332.81,445.025 1333.5,444.5C 1336.48,445.275 1339.48,445.941 1342.5,446.5 Z"/></g>
<g><path style="opacity:1" fill="#f9d804" d="M 749.5,452.5 C 766.065,450.235 776.232,457.235 780,473.5C 780.667,480.167 780.667,486.833 780,493.5C 774.954,505.866 765.788,510.699 752.5,508C 744.413,504.352 739.246,498.185 737,489.5C 735.076,481.144 735.076,472.811 737,464.5C 739.744,458.921 743.911,454.921 749.5,452.5 Z"/></g>
<g><path style="opacity:1" fill="#2f306d" d="M 692.5,452.5 C 695.388,452.22 696.888,453.553 697,456.5C 702.882,480.589 709.048,504.589 715.5,528.5C 715.182,529.647 714.516,530.481 713.5,531C 709.486,531.837 705.486,532.671 701.5,533.5C 699.531,522.79 696.864,512.29 693.5,502C 690.134,501.67 686.801,502.003 683.5,503C 674.798,505.175 666.132,507.342 657.5,509.5C 659.383,520.7 662.05,531.7 665.5,542.5C 660.967,544.805 656.301,545.805 651.5,545.5C 644.916,520.333 638.25,495.167 631.5,470C 631.833,469.5 632.167,469 632.5,468.5C 636.775,466.67 641.109,466.003 645.5,466.5C 647.88,477.357 650.88,488.023 654.5,498.5C 665.96,494.718 677.627,491.718 689.5,489.5C 687.937,478.247 685.27,467.247 681.5,456.5C 685.142,454.915 688.808,453.581 692.5,452.5 Z"/></g>
<g><path style="opacity:1" fill="#3d3868" d="M 1342.5,446.5 C 1344.89,447.219 1346.39,448.885 1347,451.5C 1353.81,468.753 1360.31,486.086 1366.5,503.5C 1364.72,502.426 1363.55,500.76 1363,498.5C 1356.45,481.019 1349.62,463.686 1342.5,446.5 Z"/></g>
<g><path style="opacity:1" fill="#827541" d="M 1046.5,453.5 C 1057.32,452.505 1068.32,452.172 1079.5,452.5C 1079.82,457.032 1079.48,461.366 1078.5,465.5C 1078.5,461.5 1078.5,457.5 1078.5,453.5C 1067.83,453.5 1057.17,453.5 1046.5,453.5 Z"/></g>
<g><path style="opacity:1" fill="#7c7045" d="M 976.5,459.5 C 977.808,463.019 977.808,466.685 976.5,470.5C 975.893,470.376 975.56,470.043 975.5,469.5C 976.479,466.375 976.813,463.042 976.5,459.5 Z"/></g>
<g><path style="opacity:1" fill="#3e3868" d="M 1267.5,437.5 C 1268.63,439.628 1268.8,441.961 1268,444.5C 1264.44,466.425 1260.61,488.258 1256.5,510C 1260.8,511.689 1265.14,512.189 1269.5,511.5C 1269.5,512.5 1269.5,513.5 1269.5,514.5C 1264.48,513.942 1259.48,513.275 1254.5,512.5C 1258.53,487.32 1262.86,462.32 1267.5,437.5 Z"/></g>
<g><path style="opacity:1" fill="#958439" d="M 1220.5,472.5 C 1221.4,473.209 1221.74,474.209 1221.5,475.5C 1219.26,475.795 1217.26,475.461 1215.5,474.5C 1217.78,474.923 1219.45,474.256 1220.5,472.5 Z"/></g>
<g><path style="opacity:1" fill="#2f306d" d="M 1475.5,500.5 C 1476.05,504.012 1475.39,507.012 1473.5,509.5C 1469.79,508.708 1466.12,507.708 1462.5,506.5C 1460.93,495.267 1454.6,488.6 1443.5,486.5C 1440.04,485.135 1436.71,485.469 1433.5,487.5C 1426.12,491.049 1420.96,496.715 1418,504.5C 1415.1,512.716 1414.76,521.049 1417,529.5C 1424.79,542.763 1435.63,545.929 1449.5,539C 1451.8,536.901 1453.46,534.401 1454.5,531.5C 1455.25,530.469 1455.92,529.302 1456.5,528C 1451.06,526.899 1445.89,525.066 1441,522.5C 1440.13,517.876 1441.96,515.543 1446.5,515.5C 1454.89,517.63 1463.22,519.964 1471.5,522.5C 1468.23,546.617 1454.56,557.45 1430.5,555C 1408.38,548.936 1398.54,534.436 1401,511.5C 1404.02,491.835 1414.85,479.001 1433.5,473C 1449.65,471.659 1462.48,477.492 1472,490.5C 1473.87,493.605 1475.03,496.938 1475.5,500.5 Z"/></g>
<g><path style="opacity:1" fill="#91823b" d="M 874.5,476.5 C 876.607,475.532 878.941,475.198 881.5,475.5C 881.737,476.791 881.404,477.791 880.5,478.5C 879.082,476.692 877.082,476.025 874.5,476.5 Z"/></g>
<g><path style="opacity:1" fill="#31316c" d="M 1525.5,480.5 C 1529.79,480.035 1533.79,480.868 1537.5,483C 1539.82,486.323 1542.49,489.323 1545.5,492C 1548.79,492.746 1551.29,491.58 1553,488.5C 1560.62,490.352 1561.45,493.852 1555.5,499C 1549.98,502.443 1544.64,502.276 1539.5,498.5C 1537.52,495.391 1535.19,492.557 1532.5,490C 1528.79,488.776 1526.12,489.942 1524.5,493.5C 1521.68,492.905 1519.35,491.572 1517.5,489.5C 1519.5,485.834 1522.17,482.834 1525.5,480.5 Z"/></g>
<g><path style="opacity:1" fill="#30316d" d="M 580.5,484.5 C 581.496,484.414 582.329,484.748 583,485.5C 591.5,510.5 600,535.5 608.5,560.5C 604.094,561.969 599.761,563.636 595.5,565.5C 586.448,540.678 577.781,515.678 569.5,490.5C 569.833,489.833 570.167,489.167 570.5,488.5C 574.013,487.336 577.346,486.002 580.5,484.5 Z"/></g>
<g><path style="opacity:1" fill="#a69239" d="M 1443.5,486.5 C 1440.14,486.616 1436.81,486.949 1433.5,487.5C 1436.71,485.469 1440.04,485.135 1443.5,486.5 Z"/></g>
<g><path style="opacity:1" fill="#2f306d" d="M 1559.5,527.5 C 1558.96,527.56 1558.62,527.893 1558.5,528.5C 1560.3,529.788 1561.97,529.788 1563.5,528.5C 1565.37,528.141 1566.87,527.141 1568,525.5C 1569.67,522.833 1571.33,520.167 1573,517.5C 1575.59,519.196 1578.42,520.196 1581.5,520.5C 1577.84,534.183 1568.84,540.183 1554.5,538.5C 1549.94,549.949 1545.11,561.282 1540,572.5C 1529.28,584.624 1516.45,587.457 1501.5,581C 1484.2,573.568 1477.7,560.734 1482,542.5C 1489,526.33 1495.5,509.996 1501.5,493.5C 1506.35,494.26 1511.01,495.594 1515.5,497.5C 1509.5,513.996 1503,530.33 1496,546.5C 1493.57,560.564 1499.4,568.564 1513.5,570.5C 1518.64,570.509 1523.14,568.842 1527,565.5C 1534.9,548.189 1542.4,530.689 1549.5,513C 1553.84,513.742 1558.01,515.242 1562,517.5C 1561.52,520.839 1560.68,524.173 1559.5,527.5 Z"/></g>
<g><path style="opacity:1" fill="#90813c" d="M 940.5,484.5 C 941.486,488.97 941.819,493.637 941.5,498.5C 938.167,498.5 934.833,498.5 931.5,498.5C 934.287,497.523 937.287,497.19 940.5,497.5C 940.5,493.167 940.5,488.833 940.5,484.5 Z"/></g>
<g><path style="opacity:1" fill="#a59231" d="M 1475.5,500.5 C 1476.48,503.625 1476.81,506.958 1476.5,510.5C 1475.21,510.737 1474.21,510.404 1473.5,509.5C 1475.39,507.012 1476.05,504.012 1475.5,500.5 Z"/></g>
<g><path style="opacity:1" fill="#2f306d" d="M 528.5,583.5 C 528.721,586.279 528.388,588.946 527.5,591.5C 524.673,592.108 522.007,593.108 519.5,594.5C 517.883,595.038 516.216,595.371 514.5,595.5C 514.823,588.978 514.49,582.645 513.5,576.5C 512.825,554.495 512.325,532.495 512,510.5C 517.31,507.841 522.81,506.008 528.5,505C 547.02,526.019 565.353,547.186 583.5,568.5C 579.142,570.505 574.809,572.505 570.5,574.5C 565.5,569.167 560.5,563.833 555.5,558.5C 546.793,561.902 538.127,565.402 529.5,569C 528.531,573.737 528.197,578.57 528.5,583.5 Z"/></g>
<g><path style="opacity:1" fill="#30316d" d="M 1201.5,511.5 C 1211.62,511.431 1214.62,515.931 1210.5,525C 1201.48,528.949 1196.98,526.116 1197,516.5C 1198.02,514.313 1199.52,512.646 1201.5,511.5 Z"/></g>
<g><path style="opacity:1" fill="#453d65" d="M 1446.5,515.5 C 1441.96,515.543 1440.13,517.876 1441,522.5C 1445.89,525.066 1451.06,526.899 1456.5,528C 1455.92,529.302 1455.25,530.469 1454.5,531.5C 1454.59,530.504 1454.25,529.671 1453.5,529C 1448.74,527.801 1444.07,526.301 1439.5,524.5C 1437.98,520.269 1438.81,516.603 1442,513.5C 1443.73,513.899 1445.23,514.566 1446.5,515.5 Z"/></g>
<g><path style="opacity:1" fill="#f2d20e" d="M 528.5,556.5 C 527.833,554.167 527.167,551.833 526.5,549.5C 525.735,540.812 525.735,532.146 526.5,523.5C 533.846,531.516 540.846,539.849 547.5,548.5C 541.34,551.554 535.006,554.221 528.5,556.5 Z"/></g>
<g><path style="opacity:1" fill="#30316d" d="M 764.5,526.5 C 772.712,525.226 776.546,528.559 776,536.5C 773.459,541.069 769.625,542.569 764.5,541C 759.214,536.169 759.214,531.335 764.5,526.5 Z"/></g>
<g><path style="opacity:1" fill="#87793f" d="M 1559.5,527.5 C 1560.57,528.434 1561.9,528.768 1563.5,528.5C 1561.97,529.788 1560.3,529.788 1558.5,528.5C 1558.62,527.893 1558.96,527.56 1559.5,527.5 Z"/></g>
<g><path style="opacity:1" fill="#2f306d" d="M 449.5,539.5 C 469.777,538.612 483.61,547.612 491,566.5C 498.274,584.232 494.774,599.398 480.5,612C 469.99,617.755 459.323,623.255 448.5,628.5C 442.34,618.185 436.674,607.518 431.5,596.5C 431.167,596.167 430.833,595.833 430.5,595.5C 427.276,596.695 424.109,598.029 421,599.5C 419.14,597.625 417.64,595.458 416.5,593C 420.04,591.069 423.374,588.902 426.5,586.5C 422.106,576.711 417.439,567.045 412.5,557.5C 424.242,550.128 436.575,544.128 449.5,539.5 Z"/></g>
<g><path style="opacity:1" fill="#f8d607" d="M 448.5,552.5 C 460.367,551.516 469.201,556.183 475,566.5C 481.364,576.527 482.031,586.86 477,597.5C 475.167,599.333 473.333,601.167 471.5,603C 466.04,605.564 460.706,608.397 455.5,611.5C 451.456,604.377 447.789,597.044 444.5,589.5C 447.493,587.336 450.493,585.169 453.5,583C 452.836,580.146 451.336,577.979 449,576.5C 446.106,577.697 443.273,579.03 440.5,580.5C 437.04,574.413 433.706,568.246 430.5,562C 436.435,558.535 442.435,555.368 448.5,552.5 Z"/></g>
<g><path style="opacity:1" fill="#7d7044" d="M 526.5,549.5 C 527.167,551.833 527.833,554.167 528.5,556.5C 528.44,557.043 528.107,557.376 527.5,557.5C 526.52,554.914 526.187,552.247 526.5,549.5 Z"/></g>
<g><path style="opacity:1" fill="#b59f30" d="M 1174.5,560.5 C 1179.73,560.444 1184.73,561.111 1189.5,562.5C 1184.27,562.556 1179.27,561.889 1174.5,560.5 Z"/></g>
<g><path style="opacity:1" fill="#30316d" d="M 1606.5,577.5 C 1617.76,582.257 1628.42,588.09 1638.5,595C 1637.7,599.403 1635.37,602.07 1631.5,603C 1621.92,598.402 1612.58,593.402 1603.5,588C 1602.98,587.439 1602.64,586.772 1602.5,586C 1604.24,583.357 1605.57,580.523 1606.5,577.5 Z"/></g>
<g><path style="opacity:1" fill="#a49131" d="M 528.5,583.5 C 529.156,584.622 529.489,585.955 529.5,587.5C 529.415,589.333 528.748,590.666 527.5,591.5C 528.388,588.946 528.721,586.279 528.5,583.5 Z"/></g>
<g><path style="opacity:1" fill="#33326c" d="M 552.5,587.5 C 561.61,587.772 564.443,592.105 561,600.5C 553.662,605.61 548.829,603.944 546.5,595.5C 547.357,591.977 549.357,589.31 552.5,587.5 Z"/></g>
<g><path style="opacity:1" fill="#2f306d" d="M 1697.5,589.5 C 1715.46,601.153 1733.12,613.32 1750.5,626C 1748.53,629.433 1746.2,632.6 1743.5,635.5C 1736.83,630.833 1730.17,626.167 1723.5,621.5C 1710.15,640.204 1696.82,658.871 1683.5,677.5C 1679.69,674.858 1676.02,672.025 1672.5,669C 1685.57,650.931 1698.24,632.598 1710.5,614C 1710.24,612.739 1709.57,611.739 1708.5,611C 1702.91,607.29 1697.41,603.457 1692,599.5C 1691.68,598.092 1692.02,596.759 1693,595.5C 1694.75,593.649 1696.25,591.649 1697.5,589.5 Z"/></g>
<g><path style="opacity:1" fill="#bca52a" d="M 513.5,576.5 C 514.49,582.645 514.823,588.978 514.5,595.5C 516.216,595.371 517.883,595.038 519.5,594.5C 518.01,596.28 516.01,596.946 513.5,596.5C 513.5,589.833 513.5,583.167 513.5,576.5 Z"/></g>
<g><path style="opacity:1" fill="#2f306d" d="M 352.5,593.5 C 363.229,593.075 372.562,596.409 380.5,603.5C 376.772,606.559 372.772,609.226 368.5,611.5C 355.444,604.122 344.944,606.788 337,619.5C 333.787,639.236 341.287,653.403 359.5,662C 368.988,662.948 376.822,659.781 383,652.5C 387.373,645.72 387.539,638.886 383.5,632C 377.89,634.387 372.557,637.554 367.5,641.5C 365.5,638.5 363.5,635.5 361.5,632.5C 369.672,626.505 378.005,620.671 386.5,615C 387.996,614.493 389.163,614.993 390,616.5C 401.856,631.379 402.523,646.712 392,662.5C 375.622,677.991 358.122,679.491 339.5,667C 322.312,651.418 317.812,632.918 326,611.5C 332.602,602.123 341.435,596.123 352.5,593.5 Z"/></g>
<g><path style="opacity:1" fill="#2f306d" d="M 289.5,634.5 C 307.624,654.468 325.29,674.968 342.5,696C 338.989,698.847 335.489,701.68 332,704.5C 311.305,698.993 290.639,693.326 270,687.5C 269.5,687.833 269,688.167 268.5,688.5C 279.833,702.167 291.167,715.833 302.5,729.5C 299.172,732.658 295.672,735.658 292,738.5C 274.358,718.538 257.192,698.204 240.5,677.5C 243.024,673.467 246.524,670.8 251,669.5C 271.865,675.066 292.698,680.733 313.5,686.5C 313.833,686.167 314.167,685.833 314.5,685.5C 302.833,671.5 291.167,657.5 279.5,643.5C 282.906,640.483 286.24,637.483 289.5,634.5 Z"/></g>
<g><path style="opacity:1" fill="#30316d" d="M 1763.5,637.5 C 1767.21,639.785 1770.71,642.452 1774,645.5C 1774.67,646.5 1774.67,647.5 1774,648.5C 1757.62,667.877 1741.62,687.543 1726,707.5C 1725.28,708.451 1724.45,708.617 1723.5,708C 1720.83,706 1718.17,704 1715.5,702C 1713.99,701.163 1713.49,699.996 1714,698.5C 1730.99,678.503 1747.49,658.169 1763.5,637.5 Z"/></g>
<g><path style="opacity:1" fill="#2f306d" d="M 1791.5,660.5 C 1796.25,662.916 1799.58,666.583 1801.5,671.5C 1797.67,692.97 1794.34,714.303 1791.5,735.5C 1804.13,722.374 1816.96,709.374 1830,696.5C 1833.35,699.682 1836.52,703.015 1839.5,706.5C 1821.48,726.022 1802.98,745.022 1784,763.5C 1780.17,761 1777,757.833 1774.5,754C 1778.67,732.504 1782,711.004 1784.5,689.5C 1772.37,702.126 1760.04,714.626 1747.5,727C 1746.83,727.667 1746.17,727.667 1745.5,727C 1742.5,724 1739.5,721 1736.5,718C 1755.04,698.964 1773.37,679.798 1791.5,660.5 Z"/></g>
<g><path style="opacity:1" fill="#2f306d" d="M 232.5,707.5 C 231.115,708.947 231.448,709.947 233.5,710.5C 248.303,716.134 259.137,726.134 266,740.5C 270.497,762.339 262.664,777.839 242.5,787C 218.854,790.593 201.354,781.76 190,760.5C 182.602,737.123 190.102,720.289 212.5,710C 216.095,709.416 219.595,708.582 223,707.5C 223.826,701.483 221.659,696.816 216.5,693.5C 218.192,691.641 219.692,689.641 221,687.5C 222.049,686.483 223.216,686.316 224.5,687C 230.928,692.357 233.594,699.19 232.5,707.5 Z"/></g>
<g><path style="opacity:1" fill="#8f7f3d" d="M 232.5,707.5 C 232.557,708.609 232.89,709.609 233.5,710.5C 231.448,709.947 231.115,708.947 232.5,707.5 Z"/></g>
<g><path style="opacity:1" fill="#31316d" d="M 174.5,707.5 C 181.112,708.734 187.445,710.734 193.5,713.5C 191.322,717.026 188.322,719.359 184.5,720.5C 178.4,719.843 172.4,718.676 166.5,717C 169.754,714.253 172.42,711.086 174.5,707.5 Z"/></g>
<g><path style="opacity:1" fill="#f9d805" d="M 216.5,722.5 C 233.492,723.084 245.658,731.084 253,746.5C 255.167,767 246,776.167 225.5,774C 213.974,769.141 205.808,760.974 201,749.5C 199.243,736.443 204.41,727.443 216.5,722.5 Z"/></g>
<g><path style="opacity:1" fill="#2f306d" d="M 1875.5,749.5 C 1879.3,752.538 1882.3,756.371 1884.5,761C 1876.21,767.483 1867.55,773.483 1858.5,779C 1857.98,779.561 1857.64,780.228 1857.5,781C 1863.96,791.409 1870.79,801.575 1878,811.5C 1887.51,805.414 1896.84,799.081 1906,792.5C 1908.63,796.265 1911.13,800.098 1913.5,804C 1892.11,819.876 1870.11,835.043 1847.5,849.5C 1844.64,845.805 1841.97,841.971 1839.5,838C 1848.7,831.305 1858.03,824.805 1867.5,818.5C 1860.75,807.994 1853.75,797.66 1846.5,787.5C 1837.17,793.833 1827.83,800.167 1818.5,806.5C 1815.62,802.794 1812.96,798.961 1810.5,795C 1832.2,779.821 1853.87,764.655 1875.5,749.5 Z"/></g>
<g><path style="opacity:1" fill="#30306d" d="M 158.5,761.5 C 164.43,764.262 168.93,768.595 172,774.5C 172.539,779.625 172.205,784.625 171,789.5C 180.581,796.042 190.414,802.209 200.5,808C 211.513,817.047 214.347,828.214 209,841.5C 202.035,860.057 188.868,867.89 169.5,865C 152,855.42 135,845.087 118.5,834C 120.81,829.867 123.476,826.034 126.5,822.5C 142.167,832 157.833,841.5 173.5,851C 187.839,852.508 195.839,846.008 197.5,831.5C 197.033,825.738 194.367,821.238 189.5,818C 174.75,809.543 160.25,800.71 146,791.5C 147.038,786.756 149.205,782.423 152.5,778.5C 155.571,780.898 158.905,782.898 162.5,784.5C 163.641,782.579 163.808,780.579 163,778.5C 160.264,774.943 157.431,771.61 154.5,768.5C 155.576,766.014 156.909,763.681 158.5,761.5 Z"/></g>
<g><path style="opacity:1" fill="#30306d" d="M 1902.5,836.5 C 1925.44,835.612 1939.6,846.279 1945,868.5C 1946.3,885.077 1939.8,897.577 1925.5,906C 1914.66,912.501 1903,914.835 1890.5,913C 1875.48,908.305 1866.31,898.138 1863,882.5C 1861.29,866.078 1867.46,853.578 1881.5,845C 1888.19,841.057 1895.19,838.224 1902.5,836.5 Z"/></g>
<g><path style="opacity:1" fill="#f9d805" d="M 1901.5,851.5 C 1922.52,848.691 1932.35,857.691 1931,878.5C 1928.82,884.038 1925.32,888.538 1920.5,892C 1911.29,897.85 1901.29,900.183 1890.5,899C 1879.59,894.015 1874.75,885.515 1876,873.5C 1877.58,867.914 1880.75,863.414 1885.5,860C 1890.64,856.685 1895.98,853.851 1901.5,851.5 Z"/></g>
<g><path style="opacity:1" fill="#2f306d" d="M 160.5,937.5 C 161.953,936.175 161.619,935.342 159.5,935C 139.425,928.197 119.425,921.197 99.5,914C 97.5273,913.505 95.5273,913.338 93.5,913.5C 91.0523,913.915 89.7189,912.915 89.5,910.5C 93.2631,897.704 98.0965,885.371 104,873.5C 113.878,862.323 125.378,860.49 138.5,868C 145.304,872.303 148.97,878.47 149.5,886.5C 161.442,884.293 173.442,882.793 185.5,882C 183.137,886.59 181.47,891.423 180.5,896.5C 169.48,897.781 158.48,899.281 147.5,901C 144.678,905.77 143.344,910.77 143.5,916C 151.726,919.279 160.059,922.279 168.5,925C 168.957,925.414 169.291,925.914 169.5,926.5C 168.167,930.167 166.833,933.833 165.5,937.5C 163.833,938.666 162.166,938.666 160.5,937.5 Z"/></g>
<g><path style="opacity:1" fill="#f6d508" d="M 118.5,878.5 C 131.229,877.398 137.063,883.064 136,895.5C 133.983,900.713 132.483,906.046 131.5,911.5C 122.83,908.999 114.33,905.999 106,902.5C 106.864,892.713 111.031,884.713 118.5,878.5 Z"/></g>
<g><path style="opacity:1" fill="#31316d" d="M 1850.5,888.5 C 1860.41,889.221 1863.41,894.055 1859.5,903C 1849.32,906.66 1845.15,903.16 1847,892.5C 1848.38,891.295 1849.54,889.962 1850.5,888.5 Z"/></g>
<g><path style="opacity:1" fill="#2f306d" d="M 1923.5,922.5 C 1940.23,919.905 1954.06,924.905 1965,937.5C 1975.34,955.465 1973.17,971.632 1958.5,986C 1955.78,988.027 1952.78,989.527 1949.5,990.5C 1948.36,985.995 1947.36,981.495 1946.5,977C 1961.31,966.192 1962.31,954.192 1949.5,941C 1932.96,933.344 1918.12,935.844 1905,948.5C 1898.98,960.102 1900.81,970.269 1910.5,979C 1913.54,981.006 1916.87,981.84 1920.5,981.5C 1921.04,986.186 1921.7,990.853 1922.5,995.5C 1907.33,995.655 1896.83,988.655 1891,974.5C 1884.29,946.255 1895.13,928.922 1923.5,922.5 Z"/></g>
<g><path style="opacity:1" fill="#403a67" d="M 93.5,913.5 C 95.5273,913.338 97.5273,913.505 99.5,914C 119.425,921.197 139.425,928.197 159.5,935C 161.619,935.342 161.953,936.175 160.5,937.5C 137.94,929.871 115.607,921.871 93.5,913.5 Z"/></g>
<g><path style="opacity:1" fill="#2f306d" d="M 82.5,934.5 C 86.4809,935.021 90.4809,935.354 94.5,935.5C 93.6641,944.187 92.6641,952.854 91.5,961.5C 114.269,964.181 136.936,967.515 159.5,971.5C 158.462,975.769 157.795,980.102 157.5,984.5C 135.661,981.582 113.827,978.582 92,975.5C 90.6739,975.755 89.6739,976.422 89,977.5C 87.8371,984.803 87.0037,992.136 86.5,999.5C 83.1501,999.665 79.8168,999.498 76.5,999C 75.4216,998.326 74.7549,997.326 74.5,996C 77.1222,975.479 79.7889,954.979 82.5,934.5 Z"/></g>
<g><path style="opacity:1" fill="#bfa72d" d="M 220.5,1051.5 C 221.972,1055.92 222.638,1060.59 222.5,1065.5C 221.028,1061.08 220.362,1056.41 220.5,1051.5 Z"/></g>
<g><path style="opacity:1" fill="#bfa72d" d="M 1826.5,1051.5 C 1826.64,1056.41 1825.97,1061.08 1824.5,1065.5C 1824.36,1060.59 1825.03,1055.92 1826.5,1051.5 Z"/></g>
<g><path style="opacity:1" fill="#37346a" d="M 1174.5,560.5 C 1179.27,561.889 1184.27,562.556 1189.5,562.5C 1299.91,575.852 1406.24,604.352 1508.5,648C 1581.05,679.745 1646.72,721.745 1705.5,774C 1752.53,817.027 1787.7,868.193 1811,927.5C 1825.05,967.707 1830.22,1009.04 1826.5,1051.5C 1825.03,1055.92 1824.36,1060.59 1824.5,1065.5C 1811.99,1131.19 1783.49,1188.86 1739,1238.5C 1697.38,1283.81 1650.22,1321.98 1597.5,1353C 1511.07,1402.71 1419.07,1438.71 1321.5,1461C 1285.62,1469.08 1249.62,1475.91 1213.5,1481.5C 1208.27,1481.44 1203.27,1482.11 1198.5,1483.5C 1195.39,1483.26 1192.39,1483.6 1189.5,1484.5C 1184.27,1484.44 1179.27,1485.11 1174.5,1486.5C 1006.41,1505.25 840.745,1492.75 677.5,1449C 583.389,1423.43 495.722,1384.1 414.5,1331C 379.025,1306.54 346.192,1278.71 316,1247.5C 280.858,1209.97 254.192,1166.97 236,1118.5C 230.37,1100.98 225.87,1083.31 222.5,1065.5C 222.638,1060.59 221.972,1055.92 220.5,1051.5C 215.712,991.653 227.546,935.32 256,882.5C 279.119,841.688 307.952,805.188 342.5,773C 405.906,716.594 477.24,672.26 556.5,640C 669.067,594.284 786.067,566.617 907.5,557C 996.603,550.263 1085.6,551.429 1174.5,560.5 Z"/></g>
<g><path style="opacity:1" fill="#fad903" d="M 624.5,1328.5 C 625.873,1328.34 627.207,1328.51 628.5,1329C 668.221,1365.01 712.554,1394.34 761.5,1417C 729.594,1423.31 698.261,1431.48 667.5,1441.5C 613.534,1426.13 561.534,1405.96 511.5,1381C 534.726,1365.72 559.393,1353.05 585.5,1343C 598.588,1338.11 611.588,1333.28 624.5,1328.5 Z"/></g>
<g><path style="opacity:1" fill="#fbd902" d="M 1419.5,1326.5 C 1461.64,1338.57 1501.64,1355.57 1539.5,1377.5C 1540.83,1378.17 1540.83,1378.83 1539.5,1379.5C 1486.67,1405.22 1432.01,1426.22 1375.5,1442.5C 1342.18,1432.42 1308.51,1423.75 1274.5,1416.5C 1318.84,1397.51 1360.17,1373.68 1398.5,1345C 1405.99,1339.34 1412.99,1333.17 1419.5,1326.5 Z"/></g>
<g><path style="opacity:1" fill="#fbd902" d="M 838.5,1384.5 C 843.964,1390.46 849.63,1396.3 855.5,1402C 846.536,1403.56 837.536,1404.72 828.5,1405.5C 808.121,1408.67 787.788,1411.84 767.5,1415C 717.932,1392.39 672.932,1363.05 632.5,1327C 669.417,1314.69 707.084,1305.02 745.5,1298C 754.82,1296.22 764.154,1294.89 773.5,1294C 791.143,1327.14 812.81,1357.31 838.5,1384.5 Z"/></g>
<g><path style="opacity:1" fill="#fbd902" d="M 1268.5,1414.5 C 1243.86,1411.04 1219.19,1407.71 1194.5,1404.5C 1194.39,1403.88 1194.06,1403.38 1193.5,1403C 1225.79,1371.04 1252.29,1334.88 1273,1294.5C 1274.23,1293.89 1275.56,1293.56 1277,1293.5C 1323.75,1300.55 1369.58,1311.21 1414.5,1325.5C 1384.73,1351.74 1352.06,1373.91 1316.5,1392C 1300.53,1399.82 1284.53,1407.32 1268.5,1414.5 Z"/></g>
<g><path style="opacity:1" fill="#fcda01" d="M 1072.5,1274.5 C 1138.17,1276.4 1203.51,1282.06 1268.5,1291.5C 1251.64,1327.03 1229.64,1359.03 1202.5,1387.5C 1197.6,1394.25 1191.44,1399.25 1184,1402.5C 1132.35,1396.43 1080.52,1393.1 1028.5,1392.5C 1028.22,1361.17 1027.89,1329.83 1027.5,1298.5C 1027.5,1290.5 1027.5,1282.5 1027.5,1274.5C 1042.5,1274.5 1057.5,1274.5 1072.5,1274.5 Z"/></g>
<g><path style="opacity:1" fill="#fcda01" d="M 970.5,1274.5 C 987.5,1274.5 1004.5,1274.5 1021.5,1274.5C 1021.18,1279.69 1021.51,1284.69 1022.5,1289.5C 1023.14,1323.83 1023.8,1358.17 1024.5,1392.5C 970.315,1392.35 916.315,1395.35 862.5,1401.5C 859.895,1400.23 857.562,1398.56 855.5,1396.5C 824.243,1366.31 798.576,1331.97 778.5,1293.5C 787.523,1290.55 796.856,1288.88 806.5,1288.5C 811.731,1288.56 816.731,1287.89 821.5,1286.5C 826.731,1286.56 831.731,1285.89 836.5,1284.5C 843.279,1283.02 850.279,1282.35 857.5,1282.5C 862.414,1282.64 867.081,1281.97 871.5,1280.5C 877.329,1280.03 882.996,1279.36 888.5,1278.5C 892.167,1278.5 895.833,1278.5 899.5,1278.5C 909.699,1278.57 919.699,1277.9 929.5,1276.5C 943.123,1275.27 956.79,1274.61 970.5,1274.5 Z"/></g>
<g><path style="opacity:1" fill="#36336b" d="M 1059.5,654.5 C 1049.86,655.325 1040.19,655.658 1030.5,655.5C 1029.65,695.163 1028.99,734.83 1028.5,774.5C 1051.83,774.204 1075.17,773.87 1098.5,773.5C 1101.64,774.321 1104.97,774.821 1108.5,775C 1104.61,775.419 1100.94,776.252 1097.5,777.5C 1074.18,778.333 1050.84,778.666 1027.5,778.5C 1027.5,793.833 1027.5,809.167 1027.5,824.5C 1026.17,824.5 1024.83,824.5 1023.5,824.5C 1023.5,809.167 1023.5,793.833 1023.5,778.5C 1012.83,778.5 1002.17,778.5 991.5,778.5C 980.019,777.235 968.352,776.402 956.5,776C 954.833,775.667 953.167,775.333 951.5,775C 954.695,774.819 957.695,774.319 960.5,773.5C 969.167,773.5 977.833,773.5 986.5,773.5C 998.989,774.495 1011.66,774.829 1024.5,774.5C 1024.5,765.833 1024.5,757.167 1024.5,748.5C 1024.7,723.831 1025.04,699.165 1025.5,674.5C 1026.49,668.021 1026.82,661.354 1026.5,654.5C 1013.17,654.5 999.833,654.5 986.5,654.5C 999.983,653.167 1013.82,652.501 1028,652.5C 1041.83,652.667 1055.67,652.833 1069.5,653C 1065.97,653.179 1062.64,653.679 1059.5,654.5 Z"/></g>
<g><path style="opacity:1" fill="#6c624e" d="M 983.5,654.5 C 984.5,654.5 985.5,654.5 986.5,654.5C 999.833,654.5 1013.17,654.5 1026.5,654.5C 1026.82,661.354 1026.49,668.021 1025.5,674.5C 1025.5,668.167 1025.5,661.833 1025.5,655.5C 1011.32,655.829 997.323,655.496 983.5,654.5 Z"/></g>
<g><path style="opacity:1" fill="#fcda00" d="M 991.5,778.5 C 1002.17,778.5 1012.83,778.5 1023.5,778.5C 1023.5,793.833 1023.5,809.167 1023.5,824.5C 1024.83,824.5 1026.17,824.5 1027.5,824.5C 1027.5,809.167 1027.5,793.833 1027.5,778.5C 1050.84,778.666 1074.18,778.333 1097.5,777.5C 1127.88,776.077 1158.21,774.077 1188.5,771.5C 1193.73,771.556 1198.73,770.889 1203.5,769.5C 1210.12,768.397 1216.79,767.73 1223.5,767.5C 1228.73,767.556 1233.73,766.889 1238.5,765.5C 1243.73,765.556 1248.73,764.889 1253.5,763.5C 1259.14,762.19 1264.97,761.19 1271,760.5C 1272.44,760.559 1273.77,760.892 1275,761.5C 1284.85,780.527 1293.02,800.194 1299.5,820.5C 1303.07,820.592 1304.24,818.926 1303,815.5C 1295.7,796.24 1287.87,777.24 1279.5,758.5C 1327.48,751.453 1374.64,740.786 1421,726.5C 1452.99,753.813 1480.66,784.813 1504,819.5C 1506.97,818.01 1507.3,816.01 1505,813.5C 1482.64,781.298 1456.81,751.964 1427.5,725.5C 1461,713.935 1493.67,700.101 1525.5,684C 1532.17,680 1538.83,676 1545.5,672C 1614.76,704.093 1675.93,747.926 1729,803.5C 1761.54,838.752 1786.87,878.752 1805,923.5C 1835.21,1010.47 1827.21,1093.8 1781,1173.5C 1750.59,1222.73 1712.42,1265.23 1666.5,1301C 1628.77,1329.53 1588.77,1354.69 1546.5,1376.5C 1507.92,1354.04 1467.25,1336.21 1424.5,1323C 1452.45,1298.06 1477.12,1270.4 1498.5,1240C 1497.42,1239.04 1496.25,1238.21 1495,1237.5C 1475.21,1265.48 1452.71,1291.32 1427.5,1315C 1424.61,1317.39 1421.61,1319.56 1418.5,1321.5C 1371.87,1307.62 1324.53,1296.95 1276.5,1289.5C 1285.74,1268.44 1294.41,1247.11 1302.5,1225.5C 1301.18,1223.73 1299.68,1223.4 1298,1224.5C 1290.89,1245.82 1282.23,1266.48 1272,1286.5C 1271.33,1287.25 1270.5,1287.59 1269.5,1287.5C 1188.95,1275.59 1107.95,1269.59 1026.5,1269.5C 1026.5,1264.17 1026.5,1258.83 1026.5,1253.5C 1026.5,1243.5 1026.5,1233.5 1026.5,1223.5C 1024.59,1223.22 1022.92,1223.55 1021.5,1224.5C 1021.5,1234.83 1021.5,1245.17 1021.5,1255.5C 1021.5,1259.83 1021.5,1264.17 1021.5,1268.5C 1010.65,1268.17 999.987,1268.51 989.5,1269.5C 952.442,1270.48 915.442,1272.48 878.5,1275.5C 873.269,1275.44 868.269,1276.11 863.5,1277.5C 834.038,1280.4 804.704,1283.9 775.5,1288C 764.828,1267.49 755.662,1246.32 748,1224.5C 746.951,1222.89 745.451,1222.23 743.5,1222.5C 746.132,1232.77 749.632,1242.77 754,1252.5C 759.518,1264.87 765.018,1277.2 770.5,1289.5C 722.372,1297.32 675.205,1308.66 629,1323.5C 600.664,1297.84 575.998,1269.18 555,1237.5C 550.692,1236.15 549.692,1237.48 552,1241.5C 572.686,1271.37 596.186,1299.04 622.5,1324.5C 581.554,1338.48 542.554,1356.48 505.5,1378.5C 428.116,1341.88 360.949,1291.55 304,1227.5C 266.55,1183.6 241.55,1133.26 229,1076.5C 216.533,1006.44 227.866,940.44 263,878.5C 293.91,827.243 333.076,783.076 380.5,746C 420.024,715.857 462.191,689.69 507,667.5C 543.199,690.348 581.699,708.514 622.5,722C 592.292,749.513 566.626,780.513 545.5,815C 545.613,816.28 546.28,817.113 547.5,817.5C 560.726,798.765 574.559,780.432 589,762.5C 601.378,748.622 614.545,735.622 628.5,723.5C 675.314,738.286 722.98,749.786 771.5,758C 772.517,759.049 772.684,760.216 772,761.5C 761.095,781.214 751.928,801.714 744.5,823C 745.722,825.965 747.222,826.132 749,823.5C 756.999,801.667 766.499,780.5 777.5,760C 807.164,763.416 836.831,767.083 866.5,771C 908.11,774.496 949.777,776.996 991.5,778.5 Z"/></g>
<g><path style="opacity:1" fill="#c2aa2a" d="M 821.5,1286.5 C 816.731,1287.89 811.731,1288.56 806.5,1288.5C 811.269,1287.11 816.269,1286.44 821.5,1286.5 Z"/></g>
<g><path style="opacity:1" fill="#bca52c" d="M 836.5,1284.5 C 831.731,1285.89 826.731,1286.56 821.5,1286.5C 826.269,1285.11 831.269,1284.44 836.5,1284.5 Z"/></g>
<g><path style="opacity:1" fill="#bca52c" d="M 871.5,1280.5 C 867.081,1281.97 862.414,1282.64 857.5,1282.5C 861.919,1281.03 866.586,1280.36 871.5,1280.5 Z"/></g>
<g><path style="opacity:1" fill="#584e5a" d="M 878.5,1275.5 C 876.735,1276.46 874.735,1276.79 872.5,1276.5C 869.609,1277.4 866.609,1277.74 863.5,1277.5C 868.269,1276.11 873.269,1275.44 878.5,1275.5 Z"/></g>
<g><path style="opacity:1" fill="#cbb21e" d="M 1072.5,1274.5 C 1057.5,1274.5 1042.5,1274.5 1027.5,1274.5C 1027.5,1282.5 1027.5,1290.5 1027.5,1298.5C 1026.51,1290.35 1026.17,1282.02 1026.5,1273.5C 1042.01,1273.17 1057.34,1273.5 1072.5,1274.5 Z"/></g>
<g><path style="opacity:1" fill="#b8a22a" d="M 970.5,1274.5 C 987.659,1273.5 1004.99,1273.17 1022.5,1273.5C 1022.5,1278.83 1022.5,1284.17 1022.5,1289.5C 1021.51,1284.69 1021.18,1279.69 1021.5,1274.5C 1004.5,1274.5 987.5,1274.5 970.5,1274.5 Z"/></g>
<g><path style="opacity:1" fill="#90803b" d="M 1021.5,1255.5 C 1022.49,1259.97 1022.82,1264.64 1022.5,1269.5C 1011.5,1269.5 1000.5,1269.5 989.5,1269.5C 999.987,1268.51 1010.65,1268.17 1021.5,1268.5C 1021.5,1264.17 1021.5,1259.83 1021.5,1255.5 Z"/></g>
<g><path style="opacity:1" fill="#b39e2a" d="M 1021.5,1224.5 C 1022.92,1223.55 1024.59,1223.22 1026.5,1223.5C 1026.5,1233.5 1026.5,1243.5 1026.5,1253.5C 1025.51,1244.01 1025.17,1234.35 1025.5,1224.5C 1024.17,1224.5 1022.83,1224.5 1021.5,1224.5 Z"/></g>
<g><path style="opacity:1" fill="#ef9b0f" d="M 587.5,911.5 C 588.499,985.665 588.833,1060 588.5,1134.5C 565.994,1134.83 543.66,1134.5 521.5,1133.5C 543.5,1133.5 565.5,1133.5 587.5,1133.5C 587.5,1059.83 587.5,986.167 587.5,912.5C 587.5,912.167 587.5,911.833 587.5,911.5 Z"/></g>
<g><path style="opacity:1" fill="#f1a40d" d="M 1194.5,973.5 C 1195.5,1012.33 1195.83,1051.33 1195.5,1090.5C 1232,1090.17 1268.34,1090.5 1304.5,1091.5C 1267.83,1091.5 1231.17,1091.5 1194.5,1091.5C 1194.5,1052.17 1194.5,1012.83 1194.5,973.5 Z"/></g>
<g><path style="opacity:1" fill="#eb8b14" d="M 1431.5,911.5 C 1432.5,985.665 1432.83,1060 1432.5,1134.5C 1409.66,1134.83 1386.99,1134.5 1364.5,1133.5C 1364.83,1133.5 1365.17,1133.5 1365.5,1133.5C 1387.5,1133.5 1409.5,1133.5 1431.5,1133.5C 1431.5,1059.83 1431.5,986.167 1431.5,912.5C 1431.5,912.167 1431.5,911.833 1431.5,911.5 Z"/></g>
<g><path style="opacity:1" fill="#eb8a14" d="M 983.5,995.5 C 1017.17,995.5 1050.83,995.5 1084.5,995.5C 1084.5,1010.17 1084.5,1024.83 1084.5,1039.5C 1050.17,1039.5 1015.83,1039.5 981.5,1039.5C 981.832,1071 981.498,1102.34 980.5,1133.5C 980.5,1101.83 980.5,1070.17 980.5,1038.5C 1014.83,1038.5 1049.17,1038.5 1083.5,1038.5C 1083.5,1024.5 1083.5,1010.5 1083.5,996.5C 1050,996.832 1016.66,996.498 983.5,995.5 Z"/></g>
<g><path style="opacity:1" fill="#e77719" d="M 587.5,911.5 C 587.5,911.833 587.5,912.167 587.5,912.5C 565.833,912.5 544.167,912.5 522.5,912.5C 522.5,940.5 522.5,968.5 522.5,996.5C 491.662,996.831 460.995,996.498 430.5,995.5C 460.833,995.5 491.167,995.5 521.5,995.5C 521.5,967.5 521.5,939.5 521.5,911.5C 543.5,911.5 565.5,911.5 587.5,911.5 Z"/></g>
<g><path style="opacity:1" fill="#e15920" d="M 1431.5,911.5 C 1431.5,911.833 1431.5,912.167 1431.5,912.5C 1409.5,912.5 1387.5,912.5 1365.5,912.5C 1365.5,986.167 1365.5,1059.83 1365.5,1133.5C 1365.17,1133.5 1364.83,1133.5 1364.5,1133.5C 1364.5,1059.5 1364.5,985.5 1364.5,911.5C 1386.83,911.5 1409.17,911.5 1431.5,911.5 Z"/></g>
<g><path style="opacity:1" fill="#f0a20d" d="M 1487.5,953.5 C 1513.5,953.5 1539.5,953.5 1565.5,953.5C 1565.5,1013.83 1565.5,1074.17 1565.5,1134.5C 1564.5,1074.67 1564.17,1014.67 1564.5,954.5C 1538.66,954.831 1512.99,954.498 1487.5,953.5 Z"/></g>
<g><path style="opacity:1" fill="#e4691b" d="M 1487.5,912.5 C 1562.33,911.501 1637.33,911.167 1712.5,911.5C 1712.5,925.833 1712.5,940.167 1712.5,954.5C 1686.17,954.5 1659.83,954.5 1633.5,954.5C 1659.33,953.502 1685.33,953.169 1711.5,953.5C 1711.5,939.833 1711.5,926.167 1711.5,912.5C 1636.83,912.5 1562.17,912.5 1487.5,912.5 Z"/></g>
<g><path style="opacity:1" fill="#dc4325" d="M 1487.5,912.5 C 1562.17,912.5 1636.83,912.5 1711.5,912.5C 1711.5,926.167 1711.5,939.833 1711.5,953.5C 1685.33,953.169 1659.33,953.502 1633.5,954.5C 1633.5,1014.5 1633.5,1074.5 1633.5,1134.5C 1610.83,1134.5 1588.17,1134.5 1565.5,1134.5C 1565.5,1074.17 1565.5,1013.83 1565.5,953.5C 1539.5,953.5 1513.5,953.5 1487.5,953.5C 1487.5,939.833 1487.5,926.167 1487.5,912.5 Z"/></g>
<g><path style="opacity:1" fill="#dc4225" d="M 1431.5,912.5 C 1431.5,986.167 1431.5,1059.83 1431.5,1133.5C 1409.5,1133.5 1387.5,1133.5 1365.5,1133.5C 1365.5,1059.83 1365.5,986.167 1365.5,912.5C 1387.5,912.5 1409.5,912.5 1431.5,912.5 Z"/></g>
<g><path style="opacity:1" fill="#dd4325" d="M 1194.5,973.5 C 1194.5,1012.83 1194.5,1052.17 1194.5,1091.5C 1231.17,1091.5 1267.83,1091.5 1304.5,1091.5C 1304.5,1105.5 1304.5,1119.5 1304.5,1133.5C 1245.5,1133.5 1186.5,1133.5 1127.5,1133.5C 1127.5,1059.83 1127.5,986.167 1127.5,912.5C 1149.83,912.5 1172.17,912.5 1194.5,912.5C 1194.5,932.833 1194.5,953.167 1194.5,973.5 Z"/></g>
<g><path style="opacity:1" fill="#dc4325" d="M 1015.5,911.5 C 1040.66,912.498 1065.99,912.831 1091.5,912.5C 1091.5,926.167 1091.5,939.833 1091.5,953.5C 1055.5,953.5 1019.5,953.5 983.5,953.5C 983.5,967.5 983.5,981.5 983.5,995.5C 1016.66,996.498 1050,996.832 1083.5,996.5C 1083.5,1010.5 1083.5,1024.5 1083.5,1038.5C 1049.17,1038.5 1014.83,1038.5 980.5,1038.5C 980.5,1070.17 980.5,1101.83 980.5,1133.5C 958.5,1133.5 936.5,1133.5 914.5,1133.5C 914.5,1059.5 914.5,985.5 914.5,911.5C 948.167,911.5 981.833,911.5 1015.5,911.5 Z"/></g>
<g><path style="opacity:1" fill="#dd4325" d="M 639.5,911.5 C 661.833,911.5 684.167,911.5 706.5,911.5C 706.042,962.19 706.542,1012.86 708,1063.5C 709.831,1076.33 716.998,1084.5 729.5,1088C 746.115,1093.26 762.448,1092.6 778.5,1086C 786.974,1081.22 792.14,1074.05 794,1064.5C 795.453,1013.52 795.953,962.522 795.5,911.5C 819.5,911.5 843.5,911.5 867.5,911.5C 867.667,955.835 867.5,1000.17 867,1044.5C 866.179,1056.23 864.845,1067.89 863,1079.5C 859.159,1094.34 850.992,1106.17 838.5,1115C 825.064,1125.59 809.731,1131.26 792.5,1132C 765.494,1133.97 738.494,1133.97 711.5,1132C 694.389,1129.61 678.723,1123.61 664.5,1114C 648.612,1099.38 640.445,1081.22 640,1059.5C 639.5,1010.17 639.333,960.834 639.5,911.5 Z"/></g>
<g><path style="opacity:1" fill="#dd4325" d="M 430.5,995.5 C 460.995,996.498 491.662,996.831 522.5,996.5C 522.5,968.5 522.5,940.5 522.5,912.5C 544.167,912.5 565.833,912.5 587.5,912.5C 587.5,986.167 587.5,1059.83 587.5,1133.5C 565.5,1133.5 543.5,1133.5 521.5,1133.5C 521.5,1101.83 521.5,1070.17 521.5,1038.5C 491.167,1038.5 460.833,1038.5 430.5,1038.5C 430.5,1070.17 430.5,1101.83 430.5,1133.5C 408.167,1133.5 385.833,1133.5 363.5,1133.5C 363.5,1059.5 363.5,985.5 363.5,911.5C 385.833,911.5 408.167,911.5 430.5,911.5C 430.5,939.5 430.5,967.5 430.5,995.5 Z"/></g>
<g><path style="opacity:1" fill="#e6701a" d="M 1015.5,911.5 C 1041.17,911.5 1066.83,911.5 1092.5,911.5C 1092.83,925.677 1092.5,939.677 1091.5,953.5C 1091.5,939.833 1091.5,926.167 1091.5,912.5C 1065.99,912.831 1040.66,912.498 1015.5,911.5 Z"/></g>
<g><path style="opacity:1" fill="#b9a22c" d="M 1203.5,769.5 C 1198.73,770.889 1193.73,771.556 1188.5,771.5C 1193.27,770.111 1198.27,769.444 1203.5,769.5 Z"/></g>
<g><path style="opacity:1" fill="#988737" d="M 1024.5,748.5 C 1024.5,757.167 1024.5,765.833 1024.5,774.5C 1011.66,774.829 998.989,774.495 986.5,773.5C 998.833,773.5 1011.17,773.5 1023.5,773.5C 1023.17,764.983 1023.51,756.65 1024.5,748.5 Z"/></g>
<g><path style="opacity:1" fill="#baa32d" d="M 1238.5,765.5 C 1233.73,766.889 1228.73,767.556 1223.5,767.5C 1228.27,766.111 1233.27,765.444 1238.5,765.5 Z"/></g>
<g><path style="opacity:1" fill="#b8a130" d="M 1253.5,763.5 C 1248.73,764.889 1243.73,765.556 1238.5,765.5C 1243.27,764.111 1248.27,763.444 1253.5,763.5 Z"/></g>
<g><path style="opacity:1" fill="#ac9735" d="M 826.5,761.5 C 831.731,761.444 836.731,762.111 841.5,763.5C 836.269,763.556 831.269,762.889 826.5,761.5 Z"/></g>
<g><path style="opacity:1" fill="#b9a22c" d="M 1176.5,647.5 C 1171.73,648.889 1166.73,649.556 1161.5,649.5C 1166.27,648.111 1171.27,647.444 1176.5,647.5 Z"/></g>
<g><path style="opacity:1" fill="#fbda01" d="M 983.5,654.5 C 997.323,655.496 1011.32,655.829 1025.5,655.5C 1025.5,661.833 1025.5,668.167 1025.5,674.5C 1025.04,699.165 1024.7,723.831 1024.5,748.5C 1023.51,756.65 1023.17,764.983 1023.5,773.5C 1011.17,773.5 998.833,773.5 986.5,773.5C 977.833,773.5 969.167,773.5 960.5,773.5C 920.652,771.726 880.985,768.392 841.5,763.5C 836.731,762.111 831.731,761.444 826.5,761.5C 810.993,760.249 795.66,757.915 780.5,754.5C 802.618,714.528 830.285,678.695 863.5,647C 884.519,648.068 905.519,649.735 926.5,652C 945.491,653.124 964.491,653.958 983.5,654.5 Z"/></g>
<g><path style="opacity:1" fill="#fbda01" d="M 1098.5,773.5 C 1075.17,773.87 1051.83,774.204 1028.5,774.5C 1028.99,734.83 1029.65,695.163 1030.5,655.5C 1040.19,655.658 1049.86,655.325 1059.5,654.5C 1076.84,654.382 1094.18,653.882 1111.5,653C 1128.16,651.59 1144.82,650.423 1161.5,649.5C 1166.73,649.556 1171.73,648.889 1176.5,647.5C 1181.45,646.441 1186.45,646.274 1191.5,647C 1221.61,676.063 1246.78,708.897 1267,745.5C 1269.07,748.971 1270.57,752.638 1271.5,756.5C 1213.96,764.872 1156.3,770.538 1098.5,773.5 Z"/></g>
<g><path style="opacity:1" fill="#ad9735" d="M 850.5,639.5 C 855.731,639.444 860.731,640.111 865.5,641.5C 860.269,641.556 855.269,640.889 850.5,639.5 Z"/></g>
<g><path style="opacity:1" fill="#fbd902" d="M 1263.5,634.5 C 1266.52,634.335 1269.52,634.502 1272.5,635C 1325.75,656.66 1374.09,685.994 1417.5,723C 1371.42,737.603 1324.42,747.937 1276.5,754C 1255.79,713.918 1229.45,677.918 1197.5,646C 1219.59,642.394 1241.59,638.561 1263.5,634.5 Z"/></g>
<g><path style="opacity:1" fill="#fbd902" d="M 766.5,630.5 C 797.101,636.211 827.768,641.378 858.5,646C 825.615,677.365 798.282,712.865 776.5,752.5C 773.216,753.657 769.882,753.824 766.5,753C 728.415,746.153 690.749,737.486 653.5,727C 646.212,725.183 639.212,722.683 632.5,719.5C 672.762,683.357 717.428,653.691 766.5,630.5 Z"/></g>
<g><path style="opacity:1" fill="#fbd902" d="M 1377.5,606.5 C 1434.46,621.321 1489.13,642.155 1541.5,669C 1504.02,692.16 1464.02,709.493 1421.5,721C 1378.78,684.51 1331.44,655.01 1279.5,632.5C 1297.41,628.021 1315.41,623.855 1333.5,620C 1348.42,615.968 1363.09,611.468 1377.5,606.5 Z"/></g>
<g><path style="opacity:1" fill="#fad903" d="M 668.5,604.5 C 698.469,613.805 728.802,621.972 759.5,629C 711.024,652.888 666.691,682.721 626.5,718.5C 593.94,707.814 562.607,694.314 532.5,678C 525.564,674.06 518.897,669.727 512.5,665C 562.91,640.624 614.91,620.457 668.5,604.5 Z"/></g>
<g><path style="opacity:1" fill="#bea72c" d="M 854.5,567.5 C 847.399,569.228 840.066,570.228 832.5,570.5C 839.601,568.772 846.934,567.772 854.5,567.5 Z"/></g>
<g><path style="opacity:1" fill="#fbd902" d="M 865.5,641.5 C 860.731,640.111 855.731,639.444 850.5,639.5C 792.212,632.844 735.212,620.51 679.5,602.5C 729.694,588.105 780.694,577.439 832.5,570.5C 840.066,570.228 847.399,569.228 854.5,567.5C 1009.26,547.989 1162.93,555.156 1315.5,589C 1334.71,593.22 1353.71,598.22 1372.5,604C 1298.42,626.293 1222.75,640.293 1145.5,646C 1061.81,652.276 978.139,651.943 894.5,645C 884.763,643.996 875.096,642.829 865.5,641.5 Z"/></g>
<g><path style="opacity:1" fill="#38356a" d="M 1021.5,1224.5 C 1022.83,1224.5 1024.17,1224.5 1025.5,1224.5C 1025.17,1234.35 1025.51,1244.01 1026.5,1253.5C 1026.5,1258.83 1026.5,1264.17 1026.5,1269.5C 1107.95,1269.59 1188.95,1275.59 1269.5,1287.5C 1270.88,1288.8 1272.38,1288.8 1274,1287.5C 1274.37,1288.42 1274.87,1289.25 1275.5,1290C 1274.07,1290.47 1272.9,1291.3 1272,1292.5C 1270.99,1291.66 1269.82,1291.33 1268.5,1291.5C 1203.51,1282.06 1138.17,1276.4 1072.5,1274.5C 1057.34,1273.5 1042.01,1273.17 1026.5,1273.5C 1026.17,1282.02 1026.51,1290.35 1027.5,1298.5C 1027.89,1329.83 1028.22,1361.17 1028.5,1392.5C 1080.52,1393.1 1132.35,1396.43 1184,1402.5C 1191.44,1399.25 1197.6,1394.25 1202.5,1387.5C 1203.55,1387.35 1204.55,1387.52 1205.5,1388C 1200.32,1393.01 1195.32,1398.18 1190.5,1403.5C 1191.69,1404.43 1193.02,1404.76 1194.5,1404.5C 1219.19,1407.71 1243.86,1411.04 1268.5,1414.5C 1270.17,1414.5 1271.83,1414.5 1273.5,1414.5C 1273.5,1415.83 1273.5,1417.17 1273.5,1418.5C 1269.66,1417.66 1265.99,1417.66 1262.5,1418.5C 1238.45,1414.83 1214.45,1411.16 1190.5,1407.5C 1185.73,1406.11 1180.73,1405.44 1175.5,1405.5C 1102.68,1397.79 1029.68,1395.29 956.5,1398C 935.15,1399.39 913.817,1400.89 892.5,1402.5C 887.269,1402.44 882.269,1403.11 877.5,1404.5C 873.069,1404.23 868.735,1404.56 864.5,1405.5C 859.269,1405.44 854.269,1406.11 849.5,1407.5C 843.123,1407.79 836.79,1408.46 830.5,1409.5C 828.958,1408.84 827.291,1408.17 825.5,1407.5C 826.602,1406.82 827.602,1406.16 828.5,1405.5C 837.536,1404.72 846.536,1403.56 855.5,1402C 849.63,1396.3 843.964,1390.46 838.5,1384.5C 838.897,1383.47 839.563,1383.31 840.5,1384C 844.5,1388 848.5,1392 852.5,1396C 853.448,1396.48 854.448,1396.65 855.5,1396.5C 857.562,1398.56 859.895,1400.23 862.5,1401.5C 916.315,1395.35 970.315,1392.35 1024.5,1392.5C 1023.8,1358.17 1023.14,1323.83 1022.5,1289.5C 1022.5,1284.17 1022.5,1278.83 1022.5,1273.5C 1004.99,1273.17 987.659,1273.5 970.5,1274.5C 956.79,1274.61 943.123,1275.27 929.5,1276.5C 919.301,1276.43 909.301,1277.1 899.5,1278.5C 895.833,1278.5 892.167,1278.5 888.5,1278.5C 882.729,1279.11 877.396,1278.45 872.5,1276.5C 874.735,1276.79 876.735,1276.46 878.5,1275.5C 915.442,1272.48 952.442,1270.48 989.5,1269.5C 1000.5,1269.5 1011.5,1269.5 1022.5,1269.5C 1022.82,1264.64 1022.49,1259.97 1021.5,1255.5C 1021.5,1245.17 1021.5,1234.83 1021.5,1224.5 Z"/></g>
<g><path style="opacity:1" fill="#d0b623" d="M 929.5,1276.5 C 919.699,1277.9 909.699,1278.57 899.5,1278.5C 909.301,1277.1 919.301,1276.43 929.5,1276.5 Z"/></g>
<g><path style="opacity:1" fill="#fbd902" d="M 1175.5,1405.5 C 1180.27,1406.89 1185.27,1407.56 1190.5,1407.5C 1214.45,1411.16 1238.45,1414.83 1262.5,1418.5C 1297.27,1425.11 1331.6,1433.78 1365.5,1444.5C 1341.6,1452.06 1317.27,1458.23 1292.5,1463C 1147.25,1492.32 1001.25,1497.82 854.5,1479.5C 850.081,1478.03 845.414,1477.36 840.5,1477.5C 788.205,1471.24 736.872,1460.91 686.5,1446.5C 684.594,1445.52 682.594,1444.52 680.5,1443.5C 681.602,1442.82 682.602,1442.16 683.5,1441.5C 728.221,1427.83 773.888,1417.83 820.5,1411.5C 830.4,1410.89 840.066,1409.56 849.5,1407.5C 854.731,1407.56 859.731,1406.89 864.5,1405.5C 868.735,1404.56 873.069,1404.23 877.5,1404.5C 882.731,1404.56 887.731,1403.89 892.5,1402.5C 913.817,1400.89 935.15,1399.39 956.5,1398C 1029.68,1395.29 1102.68,1397.79 1175.5,1405.5 Z"/></g>
<g><path style="opacity:1" fill="#b6a02e" d="M 892.5,1402.5 C 887.731,1403.89 882.731,1404.56 877.5,1404.5C 882.269,1403.11 887.269,1402.44 892.5,1402.5 Z"/></g>
<g><path style="opacity:1" fill="#5b505a" d="M 1175.5,1405.5 C 1180.73,1405.44 1185.73,1406.11 1190.5,1407.5C 1185.27,1407.56 1180.27,1406.89 1175.5,1405.5 Z"/></g>
<g><path style="opacity:1" fill="#b29c31" d="M 864.5,1405.5 C 859.731,1406.89 854.731,1407.56 849.5,1407.5C 854.269,1406.11 859.269,1405.44 864.5,1405.5 Z"/></g>
<g><path style="opacity:1" fill="#c8af27" d="M 849.5,1407.5 C 840.066,1409.56 830.4,1410.89 820.5,1411.5C 823.656,1410.57 826.989,1409.9 830.5,1409.5C 836.79,1408.46 843.123,1407.79 849.5,1407.5 Z"/></g>
<g><path style="opacity:1" fill="#bfa72e" d="M 683.5,1441.5 C 682.602,1442.16 681.602,1442.82 680.5,1443.5C 682.594,1444.52 684.594,1445.52 686.5,1446.5C 682.926,1446.31 679.593,1445.31 676.5,1443.5C 678.608,1442.06 680.941,1441.39 683.5,1441.5 Z"/></g>
<g><path style="opacity:1" fill="#c1a92c" d="M 840.5,1477.5 C 845.414,1477.36 850.081,1478.03 854.5,1479.5C 849.586,1479.64 844.919,1478.97 840.5,1477.5 Z"/></g>
<g><path style="opacity:1" fill="#c2a92b" d="M 1213.5,1481.5 C 1208.73,1482.89 1203.73,1483.56 1198.5,1483.5C 1203.27,1482.11 1208.27,1481.44 1213.5,1481.5 Z"/></g>
<g><path style="opacity:1" fill="#bca52b" d="M 1189.5,1484.5 C 1184.73,1485.89 1179.73,1486.56 1174.5,1486.5C 1179.27,1485.11 1184.27,1484.44 1189.5,1484.5 Z"/></g>
<g><path style="opacity:1" fill="#3e3868" d="M 1470.5,1498.5 C 1469.13,1498.14 1468.13,1497.31 1467.5,1496C 1466.69,1493.24 1465.69,1490.57 1464.5,1488C 1460.7,1487.88 1457.36,1489.05 1454.5,1491.5C 1457.93,1501.3 1461.27,1511.13 1464.5,1521C 1464.16,1522.03 1463.5,1522.53 1462.5,1522.5C 1459.38,1511.79 1456.04,1501.12 1452.5,1490.5C 1452.83,1489.83 1453.17,1489.17 1453.5,1488.5C 1457.17,1487.17 1460.83,1485.83 1464.5,1484.5C 1467.06,1488.84 1469.06,1493.51 1470.5,1498.5 Z"/></g>
<g><path style="opacity:1" fill="#2d2f6e" d="M 574.5,1571.5 C 572.388,1569.66 570.054,1567.99 567.5,1566.5C 571.86,1555.43 575.193,1544.09 577.5,1532.5C 578.497,1532.53 579.164,1532.03 579.5,1531C 582.575,1522.44 585.241,1513.78 587.5,1505C 587.167,1503.83 586.833,1502.67 586.5,1501.5C 579.843,1499.17 573.177,1496.84 566.5,1494.5C 567.123,1491.88 567.123,1489.21 566.5,1486.5C 566.47,1485.5 566.97,1484.84 568,1484.5C 587.463,1491.27 606.963,1497.93 626.5,1504.5C 627.023,1507.51 626.523,1510.51 625,1513.5C 624.481,1514.52 623.647,1515.18 622.5,1515.5C 614.875,1512.96 607.208,1510.62 599.5,1508.5C 592.975,1529.57 586.142,1550.57 579,1571.5C 577.384,1572.8 575.884,1572.8 574.5,1571.5 Z"/></g>
<g><path style="opacity:1" fill="#2d2f6e" d="M 1470.5,1498.5 C 1470.5,1498.83 1470.5,1499.17 1470.5,1499.5C 1475.37,1519.63 1481.37,1539.46 1488.5,1559C 1487.57,1560.08 1486.9,1561.24 1486.5,1562.5C 1483.51,1564.07 1480.51,1564.74 1477.5,1564.5C 1474.23,1555.2 1471.07,1545.87 1468,1536.5C 1467.65,1534.82 1466.65,1533.82 1465,1533.5C 1454.5,1537 1444,1540.5 1433.5,1544C 1432.24,1544.42 1431.58,1545.25 1431.5,1546.5C 1430.78,1546.08 1430.28,1545.42 1430,1544.5C 1432.13,1555.24 1435.3,1565.74 1439.5,1576C 1438.75,1576.67 1438.41,1577.5 1438.5,1578.5C 1435.01,1580.11 1431.35,1581.11 1427.5,1581.5C 1419.77,1556.31 1411.44,1531.31 1402.5,1506.5C 1406.43,1504.35 1410.6,1502.69 1415,1501.5C 1420.3,1511.56 1424.13,1522.23 1426.5,1533.5C 1438.37,1529.43 1450.37,1525.76 1462.5,1522.5C 1463.5,1522.53 1464.16,1522.03 1464.5,1521C 1461.27,1511.13 1457.93,1501.3 1454.5,1491.5C 1457.36,1489.05 1460.7,1487.88 1464.5,1488C 1465.69,1490.57 1466.69,1493.24 1467.5,1496C 1468.13,1497.31 1469.13,1498.14 1470.5,1498.5 Z"/></g>
<g><path style="opacity:1" fill="#3e3868" d="M 566.5,1486.5 C 567.123,1489.21 567.123,1491.88 566.5,1494.5C 573.177,1496.84 579.843,1499.17 586.5,1501.5C 586.833,1502.67 587.167,1503.83 587.5,1505C 585.241,1513.78 582.575,1522.44 579.5,1531C 579.164,1532.03 578.497,1532.53 577.5,1532.5C 580.092,1523.06 583.092,1513.72 586.5,1504.5C 579.318,1501.38 571.985,1498.55 564.5,1496C 563.798,1492.59 564.465,1489.42 566.5,1486.5 Z"/></g>
<g><path style="opacity:1" fill="#4a4064" d="M 1470.5,1499.5 C 1477.67,1519.66 1484.67,1539.99 1491.5,1560.5C 1489.98,1561.56 1488.31,1562.23 1486.5,1562.5C 1486.9,1561.24 1487.57,1560.08 1488.5,1559C 1481.37,1539.46 1475.37,1519.63 1470.5,1499.5 Z"/></g>
<g><path style="opacity:1" fill="#2f306d" d="M 639.5,1508.5 C 653.042,1511.63 666.375,1515.46 679.5,1520C 692.87,1530.74 695.037,1543.58 686,1558.5C 678.068,1568.12 667.901,1571.29 655.5,1568C 650.446,1566.49 645.446,1565.15 640.5,1564C 637.78,1572.38 635.446,1580.88 633.5,1589.5C 629.453,1588.98 625.453,1588.15 621.5,1587C 620.484,1586.48 619.818,1585.65 619.5,1584.5C 626.489,1559.21 633.156,1533.87 639.5,1508.5 Z"/></g>
<g><path style="opacity:1" fill="#2f306d" d="M 1384.5,1510.5 C 1385.5,1510.5 1386.5,1510.5 1387.5,1510.5C 1394,1536.48 1400.16,1562.48 1406,1588.5C 1401.91,1589.9 1397.74,1590.73 1393.5,1591C 1377.31,1576.65 1360.98,1562.48 1344.5,1548.5C 1344.17,1549 1343.83,1549.5 1343.5,1550C 1348.41,1567.05 1352.74,1584.21 1356.5,1601.5C 1351.83,1602.5 1347.17,1603.5 1342.5,1604.5C 1336,1578.5 1329.83,1552.5 1324,1526.5C 1327.62,1525.29 1331.28,1524.29 1335,1523.5C 1352,1538.17 1369,1552.83 1386,1567.5C 1382.71,1549.85 1378.55,1532.35 1373.5,1515C 1373.91,1514.05 1374.57,1513.39 1375.5,1513C 1378.74,1512.59 1381.74,1511.76 1384.5,1510.5 Z"/></g>
<g><path style="opacity:1" fill="#35336b" d="M 849.5,1522.5 C 852.976,1521.36 856.642,1521.19 860.5,1522C 863.167,1527 865.833,1532 868.5,1537C 865.442,1537.46 862.442,1537.12 859.5,1536C 856.024,1531.52 852.69,1527.02 849.5,1522.5 Z"/></g>
<g><path style="opacity:1" fill="#f5d40b" d="M 650.5,1524.5 C 656.902,1525.52 663.235,1527.02 669.5,1529C 675.364,1532.57 677.53,1537.73 676,1544.5C 674.311,1552.36 669.478,1556.36 661.5,1556.5C 655.73,1555.64 650.064,1554.31 644.5,1552.5C 644.167,1552 643.833,1551.5 643.5,1551C 646.072,1542.21 648.405,1533.38 650.5,1524.5 Z"/></g>
<g><path style="opacity:1" fill="#32326c" d="M 1143.5,1527.5 C 1146.57,1527.18 1149.57,1527.52 1152.5,1528.5C 1149.33,1534.17 1146.17,1539.83 1143,1545.5C 1139.54,1546.79 1136.04,1546.79 1132.5,1545.5C 1134.57,1540.13 1136.74,1534.79 1139,1529.5C 1140.62,1528.9 1142.12,1528.23 1143.5,1527.5 Z"/></g>
<g><path style="opacity:1" fill="#2b2e6e" d="M 1306.5,1601.5 C 1306.5,1600.83 1306.5,1600.17 1306.5,1599.5C 1303.28,1578.38 1299.28,1557.38 1294.5,1536.5C 1294.82,1535.35 1295.48,1534.52 1296.5,1534C 1299.37,1532.72 1302.2,1532.56 1305,1533.5C 1309.92,1558.09 1315.08,1582.59 1320.5,1607C 1317.01,1608.62 1313.35,1609.46 1309.5,1609.5C 1309.69,1606.19 1308.69,1603.52 1306.5,1601.5 Z"/></g>
<g><path style="opacity:1" fill="#453c65" d="M 577.5,1532.5 C 575.193,1544.09 571.86,1555.43 567.5,1566.5C 570.054,1567.99 572.388,1569.66 574.5,1571.5C 571.689,1571.17 569.022,1570.34 566.5,1569C 565.941,1568.28 565.608,1567.44 565.5,1566.5C 568.938,1554.85 572.938,1543.51 577.5,1532.5 Z"/></g>
<g><path style="opacity:1" fill="#35336b" d="M 879.5,1533.5 C 883.163,1533.95 886.83,1534.45 890.5,1535C 894.833,1539.33 899.167,1543.67 903.5,1548C 899.449,1548.52 895.449,1548.18 891.5,1547C 889.689,1544.02 887.356,1541.52 884.5,1539.5C 881.696,1541.14 879.029,1542.97 876.5,1545C 872.459,1545.83 868.459,1545.66 864.5,1544.5C 869.745,1541.06 874.745,1537.39 879.5,1533.5 Z"/></g>
<g><path style="opacity:1" fill="#2d2f6e" d="M 1248.5,1622.5 C 1245.55,1623.01 1242.72,1623.01 1240,1622.5C 1230.82,1606.81 1221.66,1591.14 1212.5,1575.5C 1213.17,1571.32 1211.67,1569.99 1208,1571.5C 1209.89,1588.87 1212.39,1606.21 1215.5,1623.5C 1215.39,1624.44 1215.06,1625.28 1214.5,1626C 1212.26,1626.05 1210.59,1626.88 1209.5,1628.5C 1207.86,1628.29 1206.36,1628.62 1205,1629.5C 1200.04,1602.98 1195.88,1576.31 1192.5,1549.5C 1196.98,1548.79 1201.48,1548.12 1206,1547.5C 1208.03,1547.35 1209.7,1548.02 1211,1549.5C 1221.01,1566.87 1231.51,1583.87 1242.5,1600.5C 1246.05,1587.9 1249.38,1575.24 1252.5,1562.5C 1253.6,1561 1254.6,1559.34 1255.5,1557.5C 1256.58,1552.42 1257.91,1547.42 1259.5,1542.5C 1263.08,1540.81 1266.91,1539.81 1271,1539.5C 1272.11,1539.59 1273.11,1539.92 1274,1540.5C 1278.05,1565.48 1281.88,1590.48 1285.5,1615.5C 1282.14,1615.62 1278.81,1615.95 1275.5,1616.5C 1272.96,1599.85 1270.46,1583.19 1268,1566.5C 1267.73,1562.87 1266.06,1561.87 1263,1563.5C 1258.28,1583.68 1253.45,1603.35 1248.5,1622.5 Z"/></g>
<g><path style="opacity:1" fill="#2c2f6e" d="M 777.5,1540.5 C 779.308,1541.92 779.975,1543.92 779.5,1546.5C 777.523,1555.7 776.189,1565.04 775.5,1574.5C 787.153,1576.26 798.819,1577.93 810.5,1579.5C 811.568,1580.43 812.901,1580.77 814.5,1580.5C 815.672,1570.13 817.172,1559.79 819,1549.5C 822.418,1548.73 825.918,1548.73 829.5,1549.5C 825.646,1574.81 821.98,1600.14 818.5,1625.5C 814.821,1625.28 811.154,1624.94 807.5,1624.5C 809.334,1613.17 810.834,1601.83 812,1590.5C 811.667,1591.5 811.333,1592.5 811,1593.5C 810.722,1592.58 810.222,1591.92 809.5,1591.5C 806.455,1591.49 803.455,1591.16 800.5,1590.5C 798.821,1589.06 796.821,1588.06 794.5,1587.5C 787.189,1586.11 779.856,1585.28 772.5,1585C 769.903,1595.66 767.903,1606.49 766.5,1617.5C 762.812,1617.22 759.145,1616.72 755.5,1616C 759.822,1590.92 763.822,1565.75 767.5,1540.5C 770.833,1540.5 774.167,1540.5 777.5,1540.5 Z"/></g>
<g><path style="opacity:1" fill="#463d65" d="M 1431.5,1546.5 C 1434.92,1556.27 1438.26,1566.1 1441.5,1576C 1441.25,1577.75 1440.25,1578.58 1438.5,1578.5C 1438.41,1577.5 1438.75,1576.67 1439.5,1576C 1435.3,1565.74 1432.13,1555.24 1430,1544.5C 1430.28,1545.42 1430.78,1546.08 1431.5,1546.5 Z"/></g>
<g><path style="opacity:1" fill="#9f8c39" d="M 777.5,1540.5 C 777.5,1540.17 777.5,1539.83 777.5,1539.5C 778.5,1539.5 779.5,1539.5 780.5,1539.5C 780.802,1542.06 780.468,1544.39 779.5,1546.5C 779.975,1543.92 779.308,1541.92 777.5,1540.5 Z"/></g>
<g><path style="opacity:1" fill="#3d3868" d="M 1248.5,1622.5 C 1253.45,1603.35 1258.28,1583.68 1263,1563.5C 1266.06,1561.87 1267.73,1562.87 1268,1566.5C 1270.46,1583.19 1272.96,1599.85 1275.5,1616.5C 1278.81,1615.95 1282.14,1615.62 1285.5,1615.5C 1281.88,1590.48 1278.05,1565.48 1274,1540.5C 1273.11,1539.92 1272.11,1539.59 1271,1539.5C 1266.91,1539.81 1263.08,1540.81 1259.5,1542.5C 1257.91,1547.42 1256.58,1552.42 1255.5,1557.5C 1254.6,1559.34 1253.6,1561 1252.5,1562.5C 1254.32,1554.87 1255.99,1547.21 1257.5,1539.5C 1263.75,1538.11 1270.08,1537.44 1276.5,1537.5C 1280.07,1563.84 1283.74,1590.18 1287.5,1616.5C 1283.65,1617.03 1279.82,1617.69 1276,1618.5C 1275.05,1618.09 1274.39,1617.43 1274,1616.5C 1271.63,1598.97 1268.63,1581.64 1265,1564.5C 1259.55,1583.63 1255.05,1602.96 1251.5,1622.5C 1250.5,1622.5 1249.5,1622.5 1248.5,1622.5 Z"/></g>
<g><path style="opacity:1" fill="#2f306d" d="M 871.5,1552.5 C 903.481,1551.31 918.314,1566.65 916,1598.5C 912.572,1624.6 897.739,1636.76 871.5,1635C 855.795,1630.63 846.295,1620.46 843,1604.5C 840.167,1587.31 844.667,1572.47 856.5,1560C 861.045,1556.39 866.045,1553.89 871.5,1552.5 Z"/></g>
<g><path style="opacity:1" fill="#2f306d" d="M 1131.5,1554.5 C 1136.17,1554.5 1140.83,1554.5 1145.5,1554.5C 1147.83,1581.17 1150.17,1607.83 1152.5,1634.5C 1147.51,1634.92 1142.51,1635.25 1137.5,1635.5C 1135.55,1608.5 1133.55,1581.5 1131.5,1554.5 Z"/></g>
<g><path style="opacity:1" fill="#393669" d="M 1306.5,1601.5 C 1308.69,1603.52 1309.69,1606.19 1309.5,1609.5C 1313.35,1609.46 1317.01,1608.62 1320.5,1607C 1315.08,1582.59 1309.92,1558.09 1305,1533.5C 1302.2,1532.56 1299.37,1532.72 1296.5,1534C 1295.48,1534.52 1294.82,1535.35 1294.5,1536.5C 1299.28,1557.38 1303.28,1578.38 1306.5,1599.5C 1301.31,1577.4 1296.64,1555.06 1292.5,1532.5C 1297.12,1531.51 1301.78,1530.85 1306.5,1530.5C 1311.83,1556.83 1317.17,1583.17 1322.5,1609.5C 1317.85,1610.47 1313.19,1610.97 1308.5,1611C 1307.39,1607.95 1306.72,1604.78 1306.5,1601.5 Z"/></g>
<g><path style="opacity:1" fill="#30306d" d="M 1099.5,1557.5 C 1104.17,1557.5 1108.83,1557.5 1113.5,1557.5C 1113.26,1558.79 1113.6,1559.79 1114.5,1560.5C 1115.29,1586.18 1116.29,1611.84 1117.5,1637.5C 1113.83,1637.5 1110.17,1637.5 1106.5,1637.5C 1105.5,1637.5 1104.5,1637.5 1103.5,1637.5C 1103.78,1635.59 1103.45,1633.92 1102.5,1632.5C 1102.26,1623.16 1101.92,1613.83 1101.5,1604.5C 1094.5,1604.5 1087.5,1604.5 1080.5,1604.5C 1074.83,1604.5 1069.17,1604.5 1063.5,1604.5C 1063.19,1608.04 1063.52,1611.38 1064.5,1614.5C 1064.5,1620.5 1064.5,1626.5 1064.5,1632.5C 1064.5,1634.83 1064.5,1637.17 1064.5,1639.5C 1061.29,1639.19 1058.29,1639.52 1055.5,1640.5C 1053.83,1640.5 1052.17,1640.5 1050.5,1640.5C 1049.68,1613.49 1048.68,1586.49 1047.5,1559.5C 1052.17,1559.5 1056.83,1559.5 1061.5,1559.5C 1061.91,1565.16 1062.24,1570.83 1062.5,1576.5C 1062.5,1582.17 1062.5,1587.83 1062.5,1593.5C 1066.37,1593.81 1070.04,1593.48 1073.5,1592.5C 1082.5,1592.5 1091.5,1592.5 1100.5,1592.5C 1100.44,1580.82 1100.11,1569.16 1099.5,1557.5 Z"/></g>
<g><path style="opacity:1" fill="#938339" d="M 1099.5,1557.5 C 1104.31,1556.51 1109.31,1556.18 1114.5,1556.5C 1114.5,1557.83 1114.5,1559.17 1114.5,1560.5C 1113.6,1559.79 1113.26,1558.79 1113.5,1557.5C 1108.83,1557.5 1104.17,1557.5 1099.5,1557.5 Z"/></g>
<g><path style="opacity:1" fill="#30316d" d="M 1017.5,1614.5 C 1022.17,1614.5 1026.83,1614.5 1031.5,1614.5C 1031.5,1615.83 1031.5,1617.17 1031.5,1618.5C 1025.73,1633.74 1014.56,1641.4 998,1641.5C 973.074,1638.56 960.908,1624.39 961.5,1599C 962.792,1571.37 977.125,1558.03 1004.5,1559C 1020.82,1561.82 1030.16,1571.32 1032.5,1587.5C 1027.82,1587.67 1023.15,1587.5 1018.5,1587C 1014.44,1574.4 1005.78,1569.4 992.5,1572C 984.507,1575.33 979.341,1581.16 977,1589.5C 976.333,1596.17 976.333,1602.83 977,1609.5C 981.172,1625 991.005,1630.83 1006.5,1627C 1012.14,1624.53 1015.81,1620.36 1017.5,1614.5 Z"/></g>
<g><path style="opacity:1" fill="#f8d707" d="M 873.5,1565.5 C 894.538,1565.04 904.038,1575.38 902,1596.5C 900.247,1613.93 890.747,1622.43 873.5,1622C 863.622,1618.77 858.122,1611.93 857,1601.5C 855.112,1588.83 858.612,1578 867.5,1569C 869.727,1568.06 871.727,1566.89 873.5,1565.5 Z"/></g>
<g><path style="opacity:1" fill="#3f3967" d="M 1212.5,1575.5 C 1211.69,1574.57 1210.85,1573.57 1210,1572.5C 1209.83,1573.33 1209.67,1574.17 1209.5,1575C 1212.96,1592.39 1215.63,1609.89 1217.5,1627.5C 1214.83,1627.83 1212.17,1628.17 1209.5,1628.5C 1210.59,1626.88 1212.26,1626.05 1214.5,1626C 1215.06,1625.28 1215.39,1624.44 1215.5,1623.5C 1212.39,1606.21 1209.89,1588.87 1208,1571.5C 1211.67,1569.99 1213.17,1571.32 1212.5,1575.5 Z"/></g>
<g><path style="opacity:1" fill="#3e3868" d="M 777.5,1539.5 C 777.5,1539.83 777.5,1540.17 777.5,1540.5C 774.167,1540.5 770.833,1540.5 767.5,1540.5C 763.822,1565.75 759.822,1590.92 755.5,1616C 759.145,1616.72 762.812,1617.22 766.5,1617.5C 767.903,1606.49 769.903,1595.66 772.5,1585C 779.856,1585.28 787.189,1586.11 794.5,1587.5C 796.821,1588.06 798.821,1589.06 800.5,1590.5C 791.198,1588.95 781.865,1587.62 772.5,1586.5C 771.058,1597.49 769.724,1608.49 768.5,1619.5C 764.766,1619.68 761.099,1619.34 757.5,1618.5C 756.791,1617.6 755.791,1617.26 754.5,1617.5C 754.5,1616.17 754.5,1614.83 754.5,1613.5C 758.058,1588.48 761.725,1563.48 765.5,1538.5C 769.5,1538.83 773.5,1539.17 777.5,1539.5 Z"/></g>
<g><path style="opacity:1" fill="#32316c" d="M 696.5,1589.5 C 704.472,1589.64 707.972,1593.64 707,1601.5C 704.103,1606.15 699.937,1607.65 694.5,1606C 688.674,1599.62 689.341,1594.12 696.5,1589.5 Z"/></g>
<g><path style="opacity:1" fill="#948439" d="M 1062.5,1576.5 C 1063.49,1581.64 1063.82,1586.97 1063.5,1592.5C 1066.83,1592.5 1070.17,1592.5 1073.5,1592.5C 1070.04,1593.48 1066.37,1593.81 1062.5,1593.5C 1062.5,1587.83 1062.5,1582.17 1062.5,1576.5 Z"/></g>
<g><path style="opacity:1" fill="#3b3769" d="M 820.5,1622.5 C 820.028,1624.53 819.028,1626.2 817.5,1627.5C 813.481,1627.35 809.481,1627.02 805.5,1626.5C 806.833,1614.83 808.167,1603.17 809.5,1591.5C 810.222,1591.92 810.722,1592.58 811,1593.5C 811.333,1592.5 811.667,1591.5 812,1590.5C 810.834,1601.83 809.334,1613.17 807.5,1624.5C 811.154,1624.94 814.821,1625.28 818.5,1625.5C 821.98,1600.14 825.646,1574.81 829.5,1549.5C 825.918,1548.73 822.418,1548.73 819,1549.5C 817.172,1559.79 815.672,1570.13 814.5,1580.5C 812.901,1580.77 811.568,1580.43 810.5,1579.5C 811.649,1579.21 812.316,1578.38 812.5,1577C 814.007,1567.12 815.674,1557.29 817.5,1547.5C 822.087,1547.11 826.754,1547.11 831.5,1547.5C 827.927,1572.51 824.26,1597.51 820.5,1622.5 Z"/></g>
<g><path style="opacity:1" fill="#857841" d="M 1017.5,1614.5 C 1022.31,1613.51 1027.31,1613.18 1032.5,1613.5C 1032.78,1615.41 1032.45,1617.08 1031.5,1618.5C 1031.5,1617.17 1031.5,1615.83 1031.5,1614.5C 1026.83,1614.5 1022.17,1614.5 1017.5,1614.5 Z"/></g>
<g><path style="opacity:1" fill="#7e7145" d="M 1080.5,1604.5 C 1075.36,1605.49 1070.03,1605.82 1064.5,1605.5C 1064.5,1608.5 1064.5,1611.5 1064.5,1614.5C 1063.52,1611.38 1063.19,1608.04 1063.5,1604.5C 1069.17,1604.5 1074.83,1604.5 1080.5,1604.5 Z"/></g>
<g><path style="opacity:1" fill="#72664b" d="M 754.5,1613.5 C 754.5,1614.83 754.5,1616.17 754.5,1617.5C 755.791,1617.26 756.791,1617.6 757.5,1618.5C 756.167,1618.5 754.833,1618.5 753.5,1618.5C 753.216,1616.59 753.549,1614.92 754.5,1613.5 Z"/></g>
<g><path style="opacity:1" fill="#a79335" d="M 820.5,1622.5 C 820.5,1624.5 820.5,1626.5 820.5,1628.5C 819.209,1628.74 818.209,1628.4 817.5,1627.5C 819.028,1626.2 820.028,1624.53 820.5,1622.5 Z"/></g>
<g><path style="opacity:1" fill="#675e50" d="M 1102.5,1632.5 C 1103.45,1633.92 1103.78,1635.59 1103.5,1637.5C 1104.5,1637.5 1105.5,1637.5 1106.5,1637.5C 1105.43,1638.43 1104.1,1638.77 1102.5,1638.5C 1102.5,1636.5 1102.5,1634.5 1102.5,1632.5 Z"/></g>
<g><path style="opacity:1" fill="#857840" d="M 1064.5,1632.5 C 1065.47,1634.95 1065.81,1637.61 1065.5,1640.5C 1062.17,1640.5 1058.83,1640.5 1055.5,1640.5C 1058.29,1639.52 1061.29,1639.19 1064.5,1639.5C 1064.5,1637.17 1064.5,1634.83 1064.5,1632.5 Z"/></g>
</svg>
